<?xml version="1.0" encoding="UTF-8" standalone="no"?>
<!DOCTYPE svg PUBLIC "-//W3C//DTD SVG 1.1//EN"
 "http://www.w3.org/Graphics/SVG/1.1/DTD/svg11.dtd">
<!-- Generated by graphviz version 2.40.1 (20161225.0304)
 -->
<!-- Title: G Pages: 1 -->
<svg width="137pt" height="127pt"
 viewBox="0.00 0.00 137.00 127.00" xmlns="http://www.w3.org/2000/svg" xmlns:xlink="http://www.w3.org/1999/xlink">
<g id="graph0" class="graph" transform="scale(1 1) rotate(0) translate(4 123)">
<title>G</title>
<polygon fill="#ffffff" stroke="transparent" points="-4,4 -4,-123 133,-123 133,4 -4,4"/>
<!-- apparat/artefakt&#45;core -->
<g id="node1" class="node">
<title>apparat/artefakt&#45;core</title>
<path fill="#eeeeee" stroke="#000000" stroke-width="2" d="M117,-119C117,-119 12,-119 12,-119 6,-119 0,-113 0,-107 0,-107 0,-95 0,-95 0,-89 6,-83 12,-83 12,-83 117,-83 117,-83 123,-83 129,-89 129,-95 129,-95 129,-107 129,-107 129,-113 123,-119 117,-119"/>
<text text-anchor="middle" x="64.5" y="-97.3" font-family="Times,serif" font-size="14.00" fill="#314b5f">apparat/artefakt&#45;core</text>
</g>
<!-- php -->
<g id="node2" class="node">
<title>php</title>
<path fill="#eeeeee" stroke="#000000" d="M79.5,-36C79.5,-36 49.5,-36 49.5,-36 43.5,-36 37.5,-30 37.5,-24 37.5,-24 37.5,-12 37.5,-12 37.5,-6 43.5,0 49.5,0 49.5,0 79.5,0 79.5,0 85.5,0 91.5,-6 91.5,-12 91.5,-12 91.5,-24 91.5,-24 91.5,-30 85.5,-36 79.5,-36"/>
<text text-anchor="middle" x="64.5" y="-14.3" font-family="Times,serif" font-size="14.00" fill="#314b5f">php</text>
</g>
<!-- apparat/artefakt&#45;core&#45;&gt;php -->
<g id="edge1" class="edge">
<title>apparat/artefakt&#45;core&#45;&gt;php</title>
<path fill="none" stroke="#1a2833" d="M64.5,-82.9902C64.5,-72.2963 64.5,-58.4994 64.5,-46.3706"/>
<polygon fill="#1a2833" stroke="#1a2833" points="68.0001,-46.2612 64.5,-36.2612 61.0001,-46.2613 68.0001,-46.2612"/>
<text text-anchor="middle" x="77" y="-57" font-family="Times,serif" font-size="10.00" fill="#767676">&gt;=7.2</text>
</g>
</g>
</svg>
