<?xml version="1.0" encoding="UTF-8" standalone="no"?>
<!DOCTYPE svg PUBLIC "-//W3C//DTD SVG 1.1//EN"
 "http://www.w3.org/Graphics/SVG/1.1/DTD/svg11.dtd">
<!-- Generated by graphviz version 2.40.1 (20161225.0304)
 -->
<!-- Title: G Pages: 1 -->
<svg width="898pt" height="318pt"
 viewBox="0.00 0.00 898.17 318.00" xmlns="http://www.w3.org/2000/svg" xmlns:xlink="http://www.w3.org/1999/xlink">
<g id="graph0" class="graph" transform="scale(1 1) rotate(0) translate(4 314)">
<title>G</title>
<polygon fill="#ffffff" stroke="transparent" points="-4,4 -4,-314 894.1725,-314 894.1725,4 -4,4"/>
<!-- apparat/artefakt&#45;core -->
<g id="node1" class="node">
<title>apparat/artefakt&#45;core</title>
<path fill="#eeeeee" stroke="#000000" stroke-width="2" d="M352.6725,-310C352.6725,-310 247.6725,-310 247.6725,-310 241.6725,-310 235.6725,-304 235.6725,-298 235.6725,-298 235.6725,-286 235.6725,-286 235.6725,-280 241.6725,-274 247.6725,-274 247.6725,-274 352.6725,-274 352.6725,-274 358.6725,-274 364.6725,-280 364.6725,-286 364.6725,-286 364.6725,-298 364.6725,-298 364.6725,-304 358.6725,-310 352.6725,-310"/>
<text text-anchor="middle" x="300.1725" y="-288.3" font-family="Times,serif" font-size="14.00" fill="#314b5f">apparat/artefakt&#45;core</text>
</g>
<!-- php -->
<g id="node2" class="node">
<title>php</title>
<path fill="#eeeeee" stroke="#000000" d="M442.1725,-36C442.1725,-36 412.1725,-36 412.1725,-36 406.1725,-36 400.1725,-30 400.1725,-24 400.1725,-24 400.1725,-12 400.1725,-12 400.1725,-6 406.1725,0 412.1725,0 412.1725,0 442.1725,0 442.1725,0 448.1725,0 454.1725,-6 454.1725,-12 454.1725,-12 454.1725,-24 454.1725,-24 454.1725,-30 448.1725,-36 442.1725,-36"/>
<text text-anchor="middle" x="427.1725" y="-14.3" font-family="Times,serif" font-size="14.00" fill="#314b5f">php</text>
</g>
<!-- apparat/artefakt&#45;core&#45;&gt;php -->
<g id="edge1" class="edge">
<title>apparat/artefakt&#45;core&#45;&gt;php</title>
<path fill="none" stroke="#1a2833" d="M235.583,-286.6062C159.6195,-278.7635 40.3856,-261.2493 13.1725,-227 -9.9559,-197.8915 -.7694,-131.8274 36.1725,-83 52.8457,-60.9624 64.7398,-62.0603 91.1725,-54 146.3086,-37.1869 314.777,-24.9736 390.101,-20.205"/>
<polygon fill="#1a2833" stroke="#1a2833" points="390.3273,-23.6978 400.0899,-19.5818 389.8914,-16.7114 390.3273,-23.6978"/>
<text text-anchor="middle" x="17.1725" y="-152.5" font-family="Times,serif" font-size="10.00" fill="#767676">^7.2</text>
</g>
<!-- ext&#45;json -->
<g id="node3" class="node">
<title>ext&#45;json</title>
<path fill="#eeeeee" stroke="#000000" d="M70.1725,-227C70.1725,-227 34.1725,-227 34.1725,-227 28.1725,-227 22.1725,-221 22.1725,-215 22.1725,-215 22.1725,-203 22.1725,-203 22.1725,-197 28.1725,-191 34.1725,-191 34.1725,-191 70.1725,-191 70.1725,-191 76.1725,-191 82.1725,-197 82.1725,-203 82.1725,-203 82.1725,-215 82.1725,-215 82.1725,-221 76.1725,-227 70.1725,-227"/>
<text text-anchor="middle" x="52.1725" y="-205.3" font-family="Times,serif" font-size="14.00" fill="#314b5f">ext&#45;json</text>
</g>
<!-- apparat/artefakt&#45;core&#45;&gt;ext&#45;json -->
<g id="edge2" class="edge">
<title>apparat/artefakt&#45;core&#45;&gt;ext&#45;json</title>
<path fill="none" stroke="#1a2833" d="M235.3976,-274.2307C196.0961,-262.9018 144.8926,-247.1734 91.8172,-227.0265"/>
<polygon fill="#1a2833" stroke="#1a2833" points="92.829,-223.6659 82.2389,-223.3497 90.3204,-230.201 92.829,-223.6659"/>
<text text-anchor="middle" x="174.1725" y="-248" font-family="Times,serif" font-size="10.00" fill="#767676">*</text>
</g>
<!-- cocur/slugify -->
<g id="node4" class="node">
<title>cocur/slugify</title>
<path fill="#eeeeee" stroke="#000000" d="M207.6725,-227C207.6725,-227 112.6725,-227 112.6725,-227 106.6725,-227 100.6725,-221 100.6725,-215 100.6725,-215 100.6725,-203 100.6725,-203 100.6725,-197 106.6725,-191 112.6725,-191 112.6725,-191 207.6725,-191 207.6725,-191 213.6725,-191 219.6725,-197 219.6725,-203 219.6725,-203 219.6725,-215 219.6725,-215 219.6725,-221 213.6725,-227 207.6725,-227"/>
<text text-anchor="middle" x="160.1725" y="-205.3" font-family="Times,serif" font-size="14.00" fill="#314b5f">cocur/slugify: v3.1</text>
</g>
<!-- apparat/artefakt&#45;core&#45;&gt;cocur/slugify -->
<g id="edge3" class="edge">
<title>apparat/artefakt&#45;core&#45;&gt;cocur/slugify</title>
<path fill="none" stroke="#1a2833" d="M243.4353,-273.9332C231.3443,-268.9659 218.975,-262.9841 208.1725,-256 199.0638,-250.111 190.2384,-242.298 182.6926,-234.736"/>
<polygon fill="#1a2833" stroke="#1a2833" points="185.0539,-232.1413 175.6102,-227.3384 179.9975,-236.9822 185.0539,-232.1413"/>
<text text-anchor="middle" x="217.1725" y="-248" font-family="Times,serif" font-size="10.00" fill="#767676">^3.1</text>
</g>
<!-- justinrainbow/json&#45;schema -->
<g id="node5" class="node">
<title>justinrainbow/json&#45;schema</title>
<path fill="#eeeeee" stroke="#000000" d="M313.1725,-173C313.1725,-173 139.1725,-173 139.1725,-173 133.1725,-173 127.1725,-167 127.1725,-161 127.1725,-161 127.1725,-149 127.1725,-149 127.1725,-143 133.1725,-137 139.1725,-137 139.1725,-137 313.1725,-137 313.1725,-137 319.1725,-137 325.1725,-143 325.1725,-149 325.1725,-149 325.1725,-161 325.1725,-161 325.1725,-167 319.1725,-173 313.1725,-173"/>
<text text-anchor="middle" x="226.1725" y="-151.3" font-family="Times,serif" font-size="14.00" fill="#314b5f">justinrainbow/json&#45;schema: 5.2.7</text>
</g>
<!-- apparat/artefakt&#45;core&#45;&gt;justinrainbow/json&#45;schema -->
<g id="edge4" class="edge">
<title>apparat/artefakt&#45;core&#45;&gt;justinrainbow/json&#45;schema</title>
<path fill="none" stroke="#1a2833" d="M290.3458,-273.8075C277.6851,-250.3679 255.5637,-209.4136 240.8912,-182.2496"/>
<polygon fill="#1a2833" stroke="#1a2833" points="243.8717,-180.4029 236.0397,-173.2678 237.7128,-183.7297 243.8717,-180.4029"/>
<text text-anchor="middle" x="289.1725" y="-248" font-family="Times,serif" font-size="10.00" fill="#767676">^5.2</text>
</g>
<!-- symfony/console -->
<g id="node6" class="node">
<title>symfony/console</title>
<path fill="#eeeeee" stroke="#000000" d="M416.1725,-227C416.1725,-227 288.1725,-227 288.1725,-227 282.1725,-227 276.1725,-221 276.1725,-215 276.1725,-215 276.1725,-203 276.1725,-203 276.1725,-197 282.1725,-191 288.1725,-191 288.1725,-191 416.1725,-191 416.1725,-191 422.1725,-191 428.1725,-197 428.1725,-203 428.1725,-203 428.1725,-215 428.1725,-215 428.1725,-221 422.1725,-227 416.1725,-227"/>
<text text-anchor="middle" x="352.1725" y="-205.3" font-family="Times,serif" font-size="14.00" fill="#314b5f">symfony/console: v4.1.0</text>
</g>
<!-- apparat/artefakt&#45;core&#45;&gt;symfony/console -->
<g id="edge5" class="edge">
<title>apparat/artefakt&#45;core&#45;&gt;symfony/console</title>
<path fill="none" stroke="#1a2833" d="M311.4557,-273.9902C318.4262,-262.8642 327.501,-248.3794 335.3139,-235.9089"/>
<polygon fill="#1a2833" stroke="#1a2833" points="338.3885,-237.5937 340.7317,-227.2612 332.4565,-233.8773 338.3885,-237.5937"/>
<text text-anchor="middle" x="338.1725" y="-248" font-family="Times,serif" font-size="10.00" fill="#767676">^4.1</text>
</g>
<!-- vlucas/phpdotenv -->
<g id="node7" class="node">
<title>vlucas/phpdotenv</title>
<path fill="#eeeeee" stroke="#000000" d="M587.1725,-173C587.1725,-173 457.1725,-173 457.1725,-173 451.1725,-173 445.1725,-167 445.1725,-161 445.1725,-161 445.1725,-149 445.1725,-149 445.1725,-143 451.1725,-137 457.1725,-137 457.1725,-137 587.1725,-137 587.1725,-137 593.1725,-137 599.1725,-143 599.1725,-149 599.1725,-149 599.1725,-161 599.1725,-161 599.1725,-167 593.1725,-173 587.1725,-173"/>
<text text-anchor="middle" x="522.1725" y="-151.3" font-family="Times,serif" font-size="14.00" fill="#314b5f">vlucas/phpdotenv: v2.4.0</text>
</g>
<!-- apparat/artefakt&#45;core&#45;&gt;vlucas/phpdotenv -->
<g id="edge6" class="edge">
<title>apparat/artefakt&#45;core&#45;&gt;vlucas/phpdotenv</title>
<path fill="none" stroke="#1a2833" d="M345.8508,-273.8789C373.2653,-262.1501 408.3023,-245.6229 437.1725,-227 458.4013,-213.3062 480.0964,-194.8412 496.2549,-180.0393"/>
<polygon fill="#1a2833" stroke="#1a2833" points="498.7744,-182.4759 503.7162,-173.1042 494.0087,-177.3487 498.7744,-182.4759"/>
<text text-anchor="middle" x="412.1725" y="-248" font-family="Times,serif" font-size="10.00" fill="#767676">^2.4</text>
</g>
<!-- webmozart/path&#45;util -->
<g id="node8" class="node">
<title>webmozart/path&#45;util</title>
<path fill="#eeeeee" stroke="#000000" d="M703.1725,-227C703.1725,-227 565.1725,-227 565.1725,-227 559.1725,-227 553.1725,-221 553.1725,-215 553.1725,-215 553.1725,-203 553.1725,-203 553.1725,-197 559.1725,-191 565.1725,-191 565.1725,-191 703.1725,-191 703.1725,-191 709.1725,-191 715.1725,-197 715.1725,-203 715.1725,-203 715.1725,-215 715.1725,-215 715.1725,-221 709.1725,-227 703.1725,-227"/>
<text text-anchor="middle" x="634.1725" y="-205.3" font-family="Times,serif" font-size="14.00" fill="#314b5f">webmozart/path&#45;util: 2.3.0</text>
</g>
<!-- apparat/artefakt&#45;core&#45;&gt;webmozart/path&#45;util -->
<g id="edge7" class="edge">
<title>apparat/artefakt&#45;core&#45;&gt;webmozart/path&#45;util</title>
<path fill="none" stroke="#1a2833" d="M364.7597,-284.556C407.3796,-278.7981 464.1821,-269.5038 513.1725,-256 537.1128,-249.401 562.8623,-239.7748 584.4277,-230.9501"/>
<polygon fill="#1a2833" stroke="#1a2833" points="585.8137,-234.1644 593.7073,-227.0975 583.1296,-227.6995 585.8137,-234.1644"/>
<text text-anchor="middle" x="555.1725" y="-248" font-family="Times,serif" font-size="10.00" fill="#767676">^2.3</text>
</g>
<!-- zenlix/zenenv -->
<g id="node9" class="node">
<title>zenlix/zenenv</title>
<path fill="#eeeeee" stroke="#000000" d="M878.1725,-173C878.1725,-173 786.1725,-173 786.1725,-173 780.1725,-173 774.1725,-167 774.1725,-161 774.1725,-161 774.1725,-149 774.1725,-149 774.1725,-143 780.1725,-137 786.1725,-137 786.1725,-137 878.1725,-137 878.1725,-137 884.1725,-137 890.1725,-143 890.1725,-149 890.1725,-149 890.1725,-161 890.1725,-161 890.1725,-167 884.1725,-173 878.1725,-173"/>
<text text-anchor="middle" x="832.1725" y="-151.3" font-family="Times,serif" font-size="14.00" fill="#314b5f">zenlix/zenenv: 1.4</text>
</g>
<!-- apparat/artefakt&#45;core&#45;&gt;zenlix/zenenv -->
<g id="edge8" class="edge">
<title>apparat/artefakt&#45;core&#45;&gt;zenlix/zenenv</title>
<path fill="none" stroke="#1a2833" d="M364.783,-285.7994C466.8241,-275.3877 660.2663,-252.9632 724.1725,-227 752.9809,-215.2959 782.1111,-195.2904 802.8462,-179.3332"/>
<polygon fill="#1a2833" stroke="#1a2833" points="805.2098,-181.9274 810.9158,-173.0004 800.8883,-176.4207 805.2098,-181.9274"/>
<text text-anchor="middle" x="661.1725" y="-248" font-family="Times,serif" font-size="10.00" fill="#767676">^1.4</text>
</g>
<!-- cocur/slugify&#45;&gt;php -->
<g id="edge10" class="edge">
<title>cocur/slugify&#45;&gt;php</title>
<path fill="none" stroke="#1a2833" d="M123.9931,-190.8565C80.2384,-166.567 16.2964,-122.0119 49.1725,-83 71.1002,-56.9797 299.0028,-31.0716 389.9733,-21.6855"/>
<polygon fill="#1a2833" stroke="#1a2833" points="390.5213,-25.1479 400.1137,-20.6494 389.8097,-18.1841 390.5213,-25.1479"/>
<text text-anchor="middle" x="65.6725" y="-98.5" font-family="Times,serif" font-size="10.00" fill="#767676">&gt;=5.5.9</text>
</g>
<!-- ext&#45;mbstring -->
<g id="node10" class="node">
<title>ext&#45;mbstring</title>
<path fill="#eeeeee" stroke="#000000" d="M165.1725,-119C165.1725,-119 103.1725,-119 103.1725,-119 97.1725,-119 91.1725,-113 91.1725,-107 91.1725,-107 91.1725,-95 91.1725,-95 91.1725,-89 97.1725,-83 103.1725,-83 103.1725,-83 165.1725,-83 165.1725,-83 171.1725,-83 177.1725,-89 177.1725,-95 177.1725,-95 177.1725,-107 177.1725,-107 177.1725,-113 171.1725,-119 165.1725,-119"/>
<text text-anchor="middle" x="134.1725" y="-97.3" font-family="Times,serif" font-size="14.00" fill="#314b5f">ext&#45;mbstring</text>
</g>
<!-- cocur/slugify&#45;&gt;ext&#45;mbstring -->
<g id="edge9" class="edge">
<title>cocur/slugify&#45;&gt;ext&#45;mbstring</title>
<path fill="none" stroke="#1a2833" d="M133.3498,-190.6448C128.0087,-185.5995 123.1372,-179.657 120.1725,-173 113.9608,-159.0527 116.6387,-142.3764 121.2417,-128.5867"/>
<polygon fill="#1a2833" stroke="#1a2833" points="124.5524,-129.7273 124.834,-119.1362 118.0092,-127.24 124.5524,-129.7273"/>
<text text-anchor="middle" x="123.1725" y="-152.5" font-family="Times,serif" font-size="10.00" fill="#767676">*</text>
</g>
<!-- justinrainbow/json&#45;schema&#45;&gt;php -->
<g id="edge11" class="edge">
<title>justinrainbow/json&#45;schema&#45;&gt;php</title>
<path fill="none" stroke="#1a2833" d="M222.0523,-136.7245C219.5959,-121.4606 218.438,-99.5933 227.1725,-83 237.5689,-63.2494 247.7847,-63.0836 268.1725,-54 307.7138,-36.3827 356.7617,-26.9662 389.8427,-22.2398"/>
<polygon fill="#1a2833" stroke="#1a2833" points="390.5501,-25.6761 399.9899,-20.8657 389.6106,-18.7394 390.5501,-25.6761"/>
<text text-anchor="middle" x="243.6725" y="-98.5" font-family="Times,serif" font-size="10.00" fill="#767676">&gt;=5.3.3</text>
</g>
<!-- symfony/console&#45;&gt;php -->
<g id="edge12" class="edge">
<title>symfony/console&#45;&gt;php</title>
<path fill="none" stroke="#1a2833" d="M349.4084,-190.8678C346.1896,-175.0706 339.507,-152.351 326.1725,-137 314.9598,-124.0918 300.9918,-133.648 292.1725,-119 283.9196,-105.2927 283.6594,-96.5473 292.1725,-83 313.4659,-49.1145 357.9238,-32.4816 390.013,-24.6029"/>
<polygon fill="#1a2833" stroke="#1a2833" points="390.9776,-27.973 399.9519,-22.3418 389.4246,-21.1474 390.9776,-27.973"/>
<text text-anchor="middle" x="304.6725" y="-98.5" font-family="Times,serif" font-size="10.00" fill="#767676">^7.1.3</text>
</g>
<!-- symfony/polyfill&#45;mbstring -->
<g id="node11" class="node">
<title>symfony/polyfill&#45;mbstring</title>
<path fill="#eeeeee" stroke="#000000" d="M516.6725,-119C516.6725,-119 337.6725,-119 337.6725,-119 331.6725,-119 325.6725,-113 325.6725,-107 325.6725,-107 325.6725,-95 325.6725,-95 325.6725,-89 331.6725,-83 337.6725,-83 337.6725,-83 516.6725,-83 516.6725,-83 522.6725,-83 528.6725,-89 528.6725,-95 528.6725,-95 528.6725,-107 528.6725,-107 528.6725,-113 522.6725,-119 516.6725,-119"/>
<text text-anchor="middle" x="427.1725" y="-97.3" font-family="Times,serif" font-size="14.00" fill="#314b5f">symfony/polyfill&#45;mbstring: v1.8.0</text>
</g>
<!-- symfony/console&#45;&gt;symfony/polyfill&#45;mbstring -->
<g id="edge13" class="edge">
<title>symfony/console&#45;&gt;symfony/polyfill&#45;mbstring</title>
<path fill="none" stroke="#1a2833" d="M364.8952,-190.6793C376.9817,-173.2746 395.284,-146.9193 408.9238,-127.278"/>
<polygon fill="#1a2833" stroke="#1a2833" points="411.8084,-129.2603 414.6376,-119.0502 406.0588,-125.2675 411.8084,-129.2603"/>
<text text-anchor="middle" x="409.6725" y="-152.5" font-family="Times,serif" font-size="10.00" fill="#767676">~1.0</text>
</g>
<!-- vlucas/phpdotenv&#45;&gt;php -->
<g id="edge15" class="edge">
<title>vlucas/phpdotenv&#45;&gt;php</title>
<path fill="none" stroke="#1a2833" d="M533.0435,-136.7606C540.5899,-121.5187 547.7249,-99.6636 538.1725,-83 522.3168,-55.3411 489.6257,-38.3166 463.8071,-28.6674"/>
<polygon fill="#1a2833" stroke="#1a2833" points="464.8926,-25.3391 454.2978,-25.3235 462.5705,-31.9427 464.8926,-25.3391"/>
<text text-anchor="middle" x="558.6725" y="-98.5" font-family="Times,serif" font-size="10.00" fill="#767676">&gt;=5.3.9</text>
</g>
<!-- webmozart/path&#45;util&#45;&gt;php -->
<g id="edge17" class="edge">
<title>webmozart/path&#45;util&#45;&gt;php</title>
<path fill="none" stroke="#1a2833" d="M630.4406,-190.9552C624.1069,-164.3332 608.9373,-114.3117 579.1725,-83 548.2601,-50.4812 498.4204,-33.4395 464.2968,-25.0987"/>
<polygon fill="#1a2833" stroke="#1a2833" points="464.7804,-21.6185 454.2496,-22.7821 463.2075,-28.4395 464.7804,-21.6185"/>
<text text-anchor="middle" x="619.6725" y="-98.5" font-family="Times,serif" font-size="10.00" fill="#767676">&gt;=5.3.3</text>
</g>
<!-- webmozart/assert -->
<g id="node12" class="node">
<title>webmozart/assert</title>
<path fill="#eeeeee" stroke="#000000" d="M820.6725,-119C820.6725,-119 697.6725,-119 697.6725,-119 691.6725,-119 685.6725,-113 685.6725,-107 685.6725,-107 685.6725,-95 685.6725,-95 685.6725,-89 691.6725,-83 697.6725,-83 697.6725,-83 820.6725,-83 820.6725,-83 826.6725,-83 832.6725,-89 832.6725,-95 832.6725,-95 832.6725,-107 832.6725,-107 832.6725,-113 826.6725,-119 820.6725,-119"/>
<text text-anchor="middle" x="759.1725" y="-97.3" font-family="Times,serif" font-size="14.00" fill="#314b5f">webmozart/assert: 1.3.0</text>
</g>
<!-- webmozart/path&#45;util&#45;&gt;webmozart/assert -->
<g id="edge18" class="edge">
<title>webmozart/path&#45;util&#45;&gt;webmozart/assert</title>
<path fill="none" stroke="#1a2833" d="M655.0946,-190.9232C675.7353,-173.0897 707.4484,-145.6896 730.4441,-125.8213"/>
<polygon fill="#1a2833" stroke="#1a2833" points="732.9033,-128.322 738.182,-119.1357 728.3269,-123.0251 732.9033,-128.322"/>
<text text-anchor="middle" x="724.6725" y="-152.5" font-family="Times,serif" font-size="10.00" fill="#767676">~1.0</text>
</g>
<!-- zenlix/zenenv&#45;&gt;php -->
<g id="edge19" class="edge">
<title>zenlix/zenenv&#45;&gt;php</title>
<path fill="none" stroke="#1a2833" d="M841.4239,-136.8603C848.0414,-121.0581 853.9048,-98.3354 842.1725,-83 819.2455,-53.0321 562.159,-29.0366 464.5021,-20.9429"/>
<polygon fill="#1a2833" stroke="#1a2833" points="464.7335,-17.4502 454.4811,-20.122 464.1619,-24.4268 464.7335,-17.4502"/>
<text text-anchor="middle" x="864.6725" y="-98.5" font-family="Times,serif" font-size="10.00" fill="#767676">&gt;=5.5.9</text>
</g>
<!-- symfony/polyfill&#45;mbstring&#45;&gt;php -->
<g id="edge14" class="edge">
<title>symfony/polyfill&#45;mbstring&#45;&gt;php</title>
<path fill="none" stroke="#1a2833" d="M427.1725,-82.9902C427.1725,-72.2963 427.1725,-58.4994 427.1725,-46.3706"/>
<polygon fill="#1a2833" stroke="#1a2833" points="430.6726,-46.2612 427.1725,-36.2612 423.6726,-46.2613 430.6726,-46.2612"/>
<text text-anchor="middle" x="443.6725" y="-57" font-family="Times,serif" font-size="10.00" fill="#767676">&gt;=5.3.3</text>
</g>
<!-- webmozart/assert&#45;&gt;php -->
<g id="edge16" class="edge">
<title>webmozart/assert&#45;&gt;php</title>
<path fill="none" stroke="#1a2833" d="M722.7244,-82.9554C701.4418,-73.0868 673.808,-61.3996 648.1725,-54 585.0694,-35.7857 508.9979,-25.9329 464.562,-21.3384"/>
<polygon fill="#1a2833" stroke="#1a2833" points="464.8064,-17.8455 454.5078,-20.3332 464.11,-24.8108 464.8064,-17.8455"/>
<text text-anchor="middle" x="705.1725" y="-57" font-family="Times,serif" font-size="10.00" fill="#767676">^5.3.3 || ^7.0</text>
</g>
</g>
</svg>
