<?xml version="1.0" encoding="UTF-8" standalone="no"?>
<!DOCTYPE svg PUBLIC "-//W3C//DTD SVG 1.1//EN"
 "http://www.w3.org/Graphics/SVG/1.1/DTD/svg11.dtd">
<!-- Generated by graphviz version 2.38.0 (20140413.2041)
 -->
<!-- Title: G Pages: 1 -->
<svg width="559pt" height="210pt"
 viewBox="0.00 0.00 559.00 210.00" xmlns="http://www.w3.org/2000/svg" xmlns:xlink="http://www.w3.org/1999/xlink">
<g id="graph0" class="graph" transform="scale(1 1) rotate(0) translate(4 206)">
<title>G</title>
<polygon fill="white" stroke="none" points="-4,4 -4,-206 555,-206 555,4 -4,4"/>
<!-- apparat/artefakt&#45;core -->
<g id="node1" class="node"><title>apparat/artefakt&#45;core</title>
<path fill="#eeeeee" stroke="black" stroke-width="2" d="M389,-202C389,-202 281,-202 281,-202 275,-202 269,-196 269,-190 269,-190 269,-178 269,-178 269,-172 275,-166 281,-166 281,-166 389,-166 389,-166 395,-166 401,-172 401,-178 401,-178 401,-190 401,-190 401,-196 395,-202 389,-202"/>
<text text-anchor="middle" x="335" y="-180.3" font-family="Times New Roman,serif" font-size="14.00" fill="#314b5f">apparat/artefakt&#45;core</text>
</g>
<!-- php -->
<g id="node2" class="node"><title>php</title>
<path fill="#eeeeee" stroke="black" d="M375,-36C375,-36 345,-36 345,-36 339,-36 333,-30 333,-24 333,-24 333,-12 333,-12 333,-6 339,-0 345,-0 345,-0 375,-0 375,-0 381,-0 387,-6 387,-12 387,-12 387,-24 387,-24 387,-30 381,-36 375,-36"/>
<text text-anchor="middle" x="360" y="-14.3" font-family="Times New Roman,serif" font-size="14.00" fill="#314b5f">php</text>
</g>
<!-- apparat/artefakt&#45;core&#45;&gt;php -->
<g id="edge1" class="edge"><title>apparat/artefakt&#45;core&#45;&gt;php</title>
<path fill="none" stroke="#1a2833" d="M401.397,-179.093C443.409,-172.772 494.765,-157.107 522,-119 557.897,-68.7732 455.169,-38.6044 396.995,-25.9625"/>
<polygon fill="#1a2833" stroke="#1a2833" points="397.544,-22.5014 387.038,-23.8744 396.107,-29.3524 397.544,-22.5014"/>
<text text-anchor="middle" x="540" y="-98.5" font-family="Times New Roman,serif" font-size="10.00" fill="#767676">&gt;=7.2</text>
</g>
<!-- cocur/slugify -->
<g id="node3" class="node"><title>cocur/slugify</title>
<path fill="#eeeeee" stroke="black" d="M108,-119C108,-119 12,-119 12,-119 6,-119 0,-113 0,-107 0,-107 0,-95 0,-95 0,-89 6,-83 12,-83 12,-83 108,-83 108,-83 114,-83 120,-89 120,-95 120,-95 120,-107 120,-107 120,-113 114,-119 108,-119"/>
<text text-anchor="middle" x="60" y="-97.3" font-family="Times New Roman,serif" font-size="14.00" fill="#314b5f">cocur/slugify: v3.1</text>
</g>
<!-- apparat/artefakt&#45;core&#45;&gt;cocur/slugify -->
<g id="edge2" class="edge"><title>apparat/artefakt&#45;core&#45;&gt;cocur/slugify</title>
<path fill="none" stroke="#1a2833" d="M277.016,-165.921C233.413,-153.078 173.557,-135.448 127.75,-121.955"/>
<polygon fill="#1a2833" stroke="#1a2833" points="128.487,-118.524 117.905,-119.056 126.509,-125.239 128.487,-118.524"/>
<text text-anchor="middle" x="222" y="-140" font-family="Times New Roman,serif" font-size="10.00" fill="#767676">^3.1</text>
</g>
<!-- justinrainbow/json&#45;schema -->
<g id="node4" class="node"><title>justinrainbow/json&#45;schema</title>
<path fill="#eeeeee" stroke="black" d="M325.5,-119C325.5,-119 150.5,-119 150.5,-119 144.5,-119 138.5,-113 138.5,-107 138.5,-107 138.5,-95 138.5,-95 138.5,-89 144.5,-83 150.5,-83 150.5,-83 325.5,-83 325.5,-83 331.5,-83 337.5,-89 337.5,-95 337.5,-95 337.5,-107 337.5,-107 337.5,-113 331.5,-119 325.5,-119"/>
<text text-anchor="middle" x="238" y="-97.3" font-family="Times New Roman,serif" font-size="14.00" fill="#314b5f">justinrainbow/json&#45;schema: 5.2.7</text>
</g>
<!-- apparat/artefakt&#45;core&#45;&gt;justinrainbow/json&#45;schema -->
<g id="edge3" class="edge"><title>apparat/artefakt&#45;core&#45;&gt;justinrainbow/json&#45;schema</title>
<path fill="none" stroke="#1a2833" d="M314.429,-165.822C300.411,-154.116 281.671,-138.468 266.257,-125.596"/>
<polygon fill="#1a2833" stroke="#1a2833" points="268.461,-122.876 258.542,-119.153 263.974,-128.249 268.461,-122.876"/>
<text text-anchor="middle" x="301" y="-140" font-family="Times New Roman,serif" font-size="10.00" fill="#767676">^5.2</text>
</g>
<!-- vlucas/phpdotenv -->
<g id="node5" class="node"><title>vlucas/phpdotenv</title>
<path fill="#eeeeee" stroke="black" d="M500.5,-119C500.5,-119 367.5,-119 367.5,-119 361.5,-119 355.5,-113 355.5,-107 355.5,-107 355.5,-95 355.5,-95 355.5,-89 361.5,-83 367.5,-83 367.5,-83 500.5,-83 500.5,-83 506.5,-83 512.5,-89 512.5,-95 512.5,-95 512.5,-107 512.5,-107 512.5,-113 506.5,-119 500.5,-119"/>
<text text-anchor="middle" x="434" y="-97.3" font-family="Times New Roman,serif" font-size="14.00" fill="#314b5f">vlucas/phpdotenv: v2.4.0</text>
</g>
<!-- apparat/artefakt&#45;core&#45;&gt;vlucas/phpdotenv -->
<g id="edge4" class="edge"><title>apparat/artefakt&#45;core&#45;&gt;vlucas/phpdotenv</title>
<path fill="none" stroke="#1a2833" d="M355.995,-165.822C370.302,-154.116 389.428,-138.468 405.161,-125.596"/>
<polygon fill="#1a2833" stroke="#1a2833" points="407.512,-128.195 413.035,-119.153 403.079,-122.777 407.512,-128.195"/>
<text text-anchor="middle" x="399" y="-140" font-family="Times New Roman,serif" font-size="10.00" fill="#767676">^2.4</text>
</g>
<!-- cocur/slugify&#45;&gt;php -->
<g id="edge6" class="edge"><title>cocur/slugify&#45;&gt;php</title>
<path fill="none" stroke="#1a2833" d="M120.349,-83.7059C180.857,-67.3686 272.108,-42.7308 322.768,-29.0527"/>
<polygon fill="#1a2833" stroke="#1a2833" points="323.895,-32.3738 332.637,-26.388 322.07,-25.6158 323.895,-32.3738"/>
<text text-anchor="middle" x="242.5" y="-57" font-family="Times New Roman,serif" font-size="10.00" fill="#767676">&gt;=5.5.9</text>
</g>
<!-- ext&#45;mbstring -->
<g id="node6" class="node"><title>ext&#45;mbstring</title>
<path fill="#eeeeee" stroke="black" d="M91,-36C91,-36 29,-36 29,-36 23,-36 17,-30 17,-24 17,-24 17,-12 17,-12 17,-6 23,-0 29,-0 29,-0 91,-0 91,-0 97,-0 103,-6 103,-12 103,-12 103,-24 103,-24 103,-30 97,-36 91,-36"/>
<text text-anchor="middle" x="60" y="-14.3" font-family="Times New Roman,serif" font-size="14.00" fill="#314b5f">ext&#45;mbstring</text>
</g>
<!-- cocur/slugify&#45;&gt;ext&#45;mbstring -->
<g id="edge5" class="edge"><title>cocur/slugify&#45;&gt;ext&#45;mbstring</title>
<path fill="none" stroke="#1a2833" d="M60,-82.822C60,-72.1903 60,-58.306 60,-46.2035"/>
<polygon fill="#1a2833" stroke="#1a2833" points="63.5001,-46.1532 60,-36.1533 56.5001,-46.1533 63.5001,-46.1532"/>
<text text-anchor="middle" x="63" y="-57" font-family="Times New Roman,serif" font-size="10.00" fill="#767676">*</text>
</g>
<!-- justinrainbow/json&#45;schema&#45;&gt;php -->
<g id="edge7" class="edge"><title>justinrainbow/json&#45;schema&#45;&gt;php</title>
<path fill="none" stroke="#1a2833" d="M263.873,-82.822C281.908,-70.848 306.157,-54.748 325.788,-41.7146"/>
<polygon fill="#1a2833" stroke="#1a2833" points="327.769,-44.6004 334.164,-36.1533 323.897,-38.7687 327.769,-44.6004"/>
<text text-anchor="middle" x="321.5" y="-57" font-family="Times New Roman,serif" font-size="10.00" fill="#767676">&gt;=5.3.3</text>
</g>
<!-- vlucas/phpdotenv&#45;&gt;php -->
<g id="edge8" class="edge"><title>vlucas/phpdotenv&#45;&gt;php</title>
<path fill="none" stroke="#1a2833" d="M418.307,-82.822C407.907,-71.4386 394.101,-56.3263 382.533,-43.6649"/>
<polygon fill="#1a2833" stroke="#1a2833" points="385,-41.1755 375.671,-36.1533 379.832,-45.8969 385,-41.1755"/>
<text text-anchor="middle" x="416.5" y="-57" font-family="Times New Roman,serif" font-size="10.00" fill="#767676">&gt;=5.3.9</text>
</g>
</g>
</svg>
