<?xml version="1.0" encoding="UTF-8" standalone="no"?>
<!DOCTYPE svg PUBLIC "-//W3C//DTD SVG 1.1//EN"
 "http://www.w3.org/Graphics/SVG/1.1/DTD/svg11.dtd">
<!-- Generated by graphviz version 2.40.1 (20161225.0304)
 -->
<!-- Title: G Pages: 1 -->
<svg width="843pt" height="318pt"
 viewBox="0.00 0.00 843.21 318.00" xmlns="http://www.w3.org/2000/svg" xmlns:xlink="http://www.w3.org/1999/xlink">
<g id="graph0" class="graph" transform="scale(1 1) rotate(0) translate(4 314)">
<title>G</title>
<polygon fill="#ffffff" stroke="transparent" points="-4,4 -4,-314 839.2145,-314 839.2145,4 -4,4"/>
<!-- apparat/artefakt&#45;core -->
<g id="node1" class="node">
<title>apparat/artefakt&#45;core</title>
<path fill="#eeeeee" stroke="#000000" stroke-width="2" d="M292.7145,-310C292.7145,-310 187.7145,-310 187.7145,-310 181.7145,-310 175.7145,-304 175.7145,-298 175.7145,-298 175.7145,-286 175.7145,-286 175.7145,-280 181.7145,-274 187.7145,-274 187.7145,-274 292.7145,-274 292.7145,-274 298.7145,-274 304.7145,-280 304.7145,-286 304.7145,-286 304.7145,-298 304.7145,-298 304.7145,-304 298.7145,-310 292.7145,-310"/>
<text text-anchor="middle" x="240.2145" y="-288.3" font-family="Times,serif" font-size="14.00" fill="#314b5f">apparat/artefakt&#45;core</text>
</g>
<!-- php -->
<g id="node2" class="node">
<title>php</title>
<path fill="#eeeeee" stroke="#000000" d="M360.2145,-36C360.2145,-36 330.2145,-36 330.2145,-36 324.2145,-36 318.2145,-30 318.2145,-24 318.2145,-24 318.2145,-12 318.2145,-12 318.2145,-6 324.2145,0 330.2145,0 330.2145,0 360.2145,0 360.2145,0 366.2145,0 372.2145,-6 372.2145,-12 372.2145,-12 372.2145,-24 372.2145,-24 372.2145,-30 366.2145,-36 360.2145,-36"/>
<text text-anchor="middle" x="345.2145" y="-14.3" font-family="Times,serif" font-size="14.00" fill="#314b5f">php</text>
</g>
<!-- apparat/artefakt&#45;core&#45;&gt;php -->
<g id="edge1" class="edge">
<title>apparat/artefakt&#45;core&#45;&gt;php</title>
<path fill="none" stroke="#1a2833" d="M175.6723,-282.993C113.4777,-272.8354 25.8498,-254.1176 5.2145,-227 -4.4745,-214.2672 2.1388,-206.7016 5.2145,-191 18.6836,-122.2409 19.2774,-82.658 83.2145,-54 122.5236,-36.3808 244.9711,-25.2492 307.5589,-20.5608"/>
<polygon fill="#1a2833" stroke="#1a2833" points="308.0747,-24.0325 317.7925,-19.8118 307.5637,-17.0512 308.0747,-24.0325"/>
<text text-anchor="middle" x="28.7145" y="-152.5" font-family="Times,serif" font-size="10.00" fill="#767676">&gt;=7.2</text>
</g>
<!-- ext&#45;json -->
<g id="node3" class="node">
<title>ext&#45;json</title>
<path fill="#eeeeee" stroke="#000000" d="M62.2145,-227C62.2145,-227 26.2145,-227 26.2145,-227 20.2145,-227 14.2145,-221 14.2145,-215 14.2145,-215 14.2145,-203 14.2145,-203 14.2145,-197 20.2145,-191 26.2145,-191 26.2145,-191 62.2145,-191 62.2145,-191 68.2145,-191 74.2145,-197 74.2145,-203 74.2145,-203 74.2145,-215 74.2145,-215 74.2145,-221 68.2145,-227 62.2145,-227"/>
<text text-anchor="middle" x="44.2145" y="-205.3" font-family="Times,serif" font-size="14.00" fill="#314b5f">ext&#45;json</text>
</g>
<!-- apparat/artefakt&#45;core&#45;&gt;ext&#45;json -->
<g id="edge2" class="edge">
<title>apparat/artefakt&#45;core&#45;&gt;ext&#45;json</title>
<path fill="none" stroke="#1a2833" d="M195.3494,-273.9798C165.9315,-262.0378 126.4491,-245.7737 83.5892,-227.0952"/>
<polygon fill="#1a2833" stroke="#1a2833" points="84.9591,-223.8742 74.3945,-223.0734 82.1538,-230.2876 84.9591,-223.8742"/>
<text text-anchor="middle" x="151.2145" y="-248" font-family="Times,serif" font-size="10.00" fill="#767676">*</text>
</g>
<!-- cocur/slugify -->
<g id="node4" class="node">
<title>cocur/slugify</title>
<path fill="#eeeeee" stroke="#000000" d="M199.7145,-227C199.7145,-227 104.7145,-227 104.7145,-227 98.7145,-227 92.7145,-221 92.7145,-215 92.7145,-215 92.7145,-203 92.7145,-203 92.7145,-197 98.7145,-191 104.7145,-191 104.7145,-191 199.7145,-191 199.7145,-191 205.7145,-191 211.7145,-197 211.7145,-203 211.7145,-203 211.7145,-215 211.7145,-215 211.7145,-221 205.7145,-227 199.7145,-227"/>
<text text-anchor="middle" x="152.2145" y="-205.3" font-family="Times,serif" font-size="14.00" fill="#314b5f">cocur/slugify: v3.1</text>
</g>
<!-- apparat/artefakt&#45;core&#45;&gt;cocur/slugify -->
<g id="edge3" class="edge">
<title>apparat/artefakt&#45;core&#45;&gt;cocur/slugify</title>
<path fill="none" stroke="#1a2833" d="M219.7149,-273.8497C213.4096,-268.1871 206.4811,-261.8831 200.2145,-256 192.8461,-249.0825 184.9661,-241.4628 177.7652,-234.4088"/>
<polygon fill="#1a2833" stroke="#1a2833" points="179.8567,-231.5565 170.2744,-227.0366 174.9467,-236.5456 179.8567,-231.5565"/>
<text text-anchor="middle" x="209.2145" y="-248" font-family="Times,serif" font-size="10.00" fill="#767676">^3.1</text>
</g>
<!-- justinrainbow/json&#45;schema -->
<g id="node5" class="node">
<title>justinrainbow/json&#45;schema</title>
<path fill="#eeeeee" stroke="#000000" d="M327.2145,-173C327.2145,-173 153.2145,-173 153.2145,-173 147.2145,-173 141.2145,-167 141.2145,-161 141.2145,-161 141.2145,-149 141.2145,-149 141.2145,-143 147.2145,-137 153.2145,-137 153.2145,-137 327.2145,-137 327.2145,-137 333.2145,-137 339.2145,-143 339.2145,-149 339.2145,-149 339.2145,-161 339.2145,-161 339.2145,-167 333.2145,-173 327.2145,-173"/>
<text text-anchor="middle" x="240.2145" y="-151.3" font-family="Times,serif" font-size="14.00" fill="#314b5f">justinrainbow/json&#45;schema: 5.2.7</text>
</g>
<!-- apparat/artefakt&#45;core&#45;&gt;justinrainbow/json&#45;schema -->
<g id="edge4" class="edge">
<title>apparat/artefakt&#45;core&#45;&gt;justinrainbow/json&#45;schema</title>
<path fill="none" stroke="#1a2833" d="M240.2145,-273.8075C240.2145,-250.675 240.2145,-210.4836 240.2145,-183.3242"/>
<polygon fill="#1a2833" stroke="#1a2833" points="243.7146,-183.2677 240.2145,-173.2678 236.7146,-183.2678 243.7146,-183.2677"/>
<text text-anchor="middle" x="249.2145" y="-248" font-family="Times,serif" font-size="10.00" fill="#767676">^5.2</text>
</g>
<!-- makbari/dot&#45;env&#45;editor -->
<g id="node6" class="node">
<title>makbari/dot&#45;env&#45;editor</title>
<path fill="#eeeeee" stroke="#000000" d="M434.2145,-227C434.2145,-227 280.2145,-227 280.2145,-227 274.2145,-227 268.2145,-221 268.2145,-215 268.2145,-215 268.2145,-203 268.2145,-203 268.2145,-197 274.2145,-191 280.2145,-191 280.2145,-191 434.2145,-191 434.2145,-191 440.2145,-191 446.2145,-197 446.2145,-203 446.2145,-203 446.2145,-215 446.2145,-215 446.2145,-221 440.2145,-227 434.2145,-227"/>
<text text-anchor="middle" x="357.2145" y="-205.3" font-family="Times,serif" font-size="14.00" fill="#314b5f">makbari/dot&#45;env&#45;editor: 0.1.4</text>
</g>
<!-- apparat/artefakt&#45;core&#45;&gt;makbari/dot&#45;env&#45;editor -->
<g id="edge5" class="edge">
<title>apparat/artefakt&#45;core&#45;&gt;makbari/dot&#45;env&#45;editor</title>
<path fill="none" stroke="#1a2833" d="M265.6018,-273.9902C282.3514,-262.1081 304.5009,-246.3951 322.825,-233.396"/>
<polygon fill="#1a2833" stroke="#1a2833" points="325.3418,-235.9019 331.4728,-227.2612 321.2915,-230.1926 325.3418,-235.9019"/>
<text text-anchor="middle" x="317.7145" y="-248" font-family="Times,serif" font-size="10.00" fill="#767676">^0.1.4</text>
</g>
<!-- symfony/console -->
<g id="node7" class="node">
<title>symfony/console</title>
<path fill="#eeeeee" stroke="#000000" d="M604.2145,-227C604.2145,-227 476.2145,-227 476.2145,-227 470.2145,-227 464.2145,-221 464.2145,-215 464.2145,-215 464.2145,-203 464.2145,-203 464.2145,-197 470.2145,-191 476.2145,-191 476.2145,-191 604.2145,-191 604.2145,-191 610.2145,-191 616.2145,-197 616.2145,-203 616.2145,-203 616.2145,-215 616.2145,-215 616.2145,-221 610.2145,-227 604.2145,-227"/>
<text text-anchor="middle" x="540.2145" y="-205.3" font-family="Times,serif" font-size="14.00" fill="#314b5f">symfony/console: v4.1.0</text>
</g>
<!-- apparat/artefakt&#45;core&#45;&gt;symfony/console -->
<g id="edge6" class="edge">
<title>apparat/artefakt&#45;core&#45;&gt;symfony/console</title>
<path fill="none" stroke="#1a2833" d="M304.9407,-274.0924C352.094,-261.0467 416.0823,-243.3433 465.4236,-229.6922"/>
<polygon fill="#1a2833" stroke="#1a2833" points="466.3826,-233.0584 475.0872,-227.0186 464.516,-226.3118 466.3826,-233.0584"/>
<text text-anchor="middle" x="416.2145" y="-248" font-family="Times,serif" font-size="10.00" fill="#767676">^4.1</text>
</g>
<!-- vlucas/phpdotenv -->
<g id="node8" class="node">
<title>vlucas/phpdotenv</title>
<path fill="#eeeeee" stroke="#000000" d="M823.2145,-173C823.2145,-173 693.2145,-173 693.2145,-173 687.2145,-173 681.2145,-167 681.2145,-161 681.2145,-161 681.2145,-149 681.2145,-149 681.2145,-143 687.2145,-137 693.2145,-137 693.2145,-137 823.2145,-137 823.2145,-137 829.2145,-137 835.2145,-143 835.2145,-149 835.2145,-149 835.2145,-161 835.2145,-161 835.2145,-167 829.2145,-173 823.2145,-173"/>
<text text-anchor="middle" x="758.2145" y="-151.3" font-family="Times,serif" font-size="14.00" fill="#314b5f">vlucas/phpdotenv: v2.4.0</text>
</g>
<!-- apparat/artefakt&#45;core&#45;&gt;vlucas/phpdotenv -->
<g id="edge7" class="edge">
<title>apparat/artefakt&#45;core&#45;&gt;vlucas/phpdotenv</title>
<path fill="none" stroke="#1a2833" d="M304.8244,-287.598C382.6281,-280.8301 516.4204,-264.4736 625.2145,-227 659.8574,-215.0675 696.2518,-194.7498 722.1945,-178.7343"/>
<polygon fill="#1a2833" stroke="#1a2833" points="724.2997,-181.5455 730.9148,-173.2696 720.5826,-175.614 724.2997,-181.5455"/>
<text text-anchor="middle" x="568.2145" y="-248" font-family="Times,serif" font-size="10.00" fill="#767676">^2.4</text>
</g>
<!-- cocur/slugify&#45;&gt;php -->
<g id="edge9" class="edge">
<title>cocur/slugify&#45;&gt;php</title>
<path fill="none" stroke="#1a2833" d="M122.7494,-190.8685C86.035,-166.0258 31.5314,-120.2444 61.2145,-83 91.6496,-44.8122 237.7388,-27.2527 307.7038,-20.9284"/>
<polygon fill="#1a2833" stroke="#1a2833" points="308.1934,-24.3991 317.8509,-20.042 307.5842,-17.4256 308.1934,-24.3991"/>
<text text-anchor="middle" x="77.7145" y="-98.5" font-family="Times,serif" font-size="10.00" fill="#767676">&gt;=5.5.9</text>
</g>
<!-- ext&#45;mbstring -->
<g id="node9" class="node">
<title>ext&#45;mbstring</title>
<path fill="#eeeeee" stroke="#000000" d="M177.2145,-119C177.2145,-119 115.2145,-119 115.2145,-119 109.2145,-119 103.2145,-113 103.2145,-107 103.2145,-107 103.2145,-95 103.2145,-95 103.2145,-89 109.2145,-83 115.2145,-83 115.2145,-83 177.2145,-83 177.2145,-83 183.2145,-83 189.2145,-89 189.2145,-95 189.2145,-95 189.2145,-107 189.2145,-107 189.2145,-113 183.2145,-119 177.2145,-119"/>
<text text-anchor="middle" x="146.2145" y="-97.3" font-family="Times,serif" font-size="14.00" fill="#314b5f">ext&#45;mbstring</text>
</g>
<!-- cocur/slugify&#45;&gt;ext&#45;mbstring -->
<g id="edge8" class="edge">
<title>cocur/slugify&#45;&gt;ext&#45;mbstring</title>
<path fill="none" stroke="#1a2833" d="M141.1471,-190.9406C138.3131,-185.3873 135.6594,-179.1207 134.2145,-173 130.5385,-157.428 131.6516,-152.7934 134.2145,-137 134.6545,-134.2891 135.2693,-131.5064 135.9905,-128.7473"/>
<polygon fill="#1a2833" stroke="#1a2833" points="139.3853,-129.6132 138.9454,-119.0275 132.688,-127.5771 139.3853,-129.6132"/>
<text text-anchor="middle" x="137.2145" y="-152.5" font-family="Times,serif" font-size="10.00" fill="#767676">*</text>
</g>
<!-- justinrainbow/json&#45;schema&#45;&gt;php -->
<g id="edge10" class="edge">
<title>justinrainbow/json&#45;schema&#45;&gt;php</title>
<path fill="none" stroke="#1a2833" d="M240.1008,-136.762C240.8147,-121.3185 243.8172,-99.175 254.2145,-83 267.5369,-62.2745 290.0127,-46.1242 309.2932,-35.1062"/>
<polygon fill="#1a2833" stroke="#1a2833" points="311.0665,-38.1257 318.1641,-30.2597 307.7103,-31.9827 311.0665,-38.1257"/>
<text text-anchor="middle" x="270.7145" y="-98.5" font-family="Times,serif" font-size="10.00" fill="#767676">&gt;=5.3.3</text>
</g>
<!-- makbari/dot&#45;env&#45;editor&#45;&gt;php -->
<g id="edge12" class="edge">
<title>makbari/dot&#45;env&#45;editor&#45;&gt;php</title>
<path fill="none" stroke="#1a2833" d="M356.1673,-190.8995C354.5591,-175.542 350.4911,-153.4474 340.2145,-137 333.5202,-126.2859 323.6246,-130.4165 318.2145,-119 311.3629,-104.5413 315.0853,-98.691 318.2145,-83 320.7654,-70.2094 325.8826,-56.7854 330.9828,-45.4795"/>
<polygon fill="#1a2833" stroke="#1a2833" points="334.28,-46.6944 335.3955,-36.1584 327.9532,-43.6992 334.28,-46.6944"/>
<text text-anchor="middle" x="330.7145" y="-98.5" font-family="Times,serif" font-size="10.00" fill="#767676">&gt;=7.0</text>
</g>
<!-- mhndev/config -->
<g id="node10" class="node">
<title>mhndev/config</title>
<path fill="#eeeeee" stroke="#000000" d="M474.2145,-119C474.2145,-119 364.2145,-119 364.2145,-119 358.2145,-119 352.2145,-113 352.2145,-107 352.2145,-107 352.2145,-95 352.2145,-95 352.2145,-89 358.2145,-83 364.2145,-83 364.2145,-83 474.2145,-83 474.2145,-83 480.2145,-83 486.2145,-89 486.2145,-95 486.2145,-95 486.2145,-107 486.2145,-107 486.2145,-113 480.2145,-119 474.2145,-119"/>
<text text-anchor="middle" x="419.2145" y="-97.3" font-family="Times,serif" font-size="14.00" fill="#314b5f">mhndev/config: 1.0.0</text>
</g>
<!-- makbari/dot&#45;env&#45;editor&#45;&gt;mhndev/config -->
<g id="edge11" class="edge">
<title>makbari/dot&#45;env&#45;editor&#45;&gt;mhndev/config</title>
<path fill="none" stroke="#1a2833" d="M367.732,-190.6793C377.6339,-173.4307 392.5825,-147.3914 403.8247,-127.8081"/>
<polygon fill="#1a2833" stroke="#1a2833" points="406.9091,-129.4653 408.8524,-119.0502 400.8383,-125.9802 406.9091,-129.4653"/>
<text text-anchor="middle" x="403.7145" y="-152.5" font-family="Times,serif" font-size="10.00" fill="#767676">1.*</text>
</g>
<!-- symfony/console&#45;&gt;php -->
<g id="edge14" class="edge">
<title>symfony/console&#45;&gt;php</title>
<path fill="none" stroke="#1a2833" d="M538.2892,-190.7957C534.5459,-163.9701 523.9482,-113.692 495.2145,-83 464.9796,-50.7044 415.9525,-33.6392 382.2272,-25.2306"/>
<polygon fill="#1a2833" stroke="#1a2833" points="382.8257,-21.7759 372.2898,-22.8917 381.2219,-28.5897 382.8257,-21.7759"/>
<text text-anchor="middle" x="529.7145" y="-98.5" font-family="Times,serif" font-size="10.00" fill="#767676">^7.1.3</text>
</g>
<!-- symfony/polyfill&#45;mbstring -->
<g id="node11" class="node">
<title>symfony/polyfill&#45;mbstring</title>
<path fill="#eeeeee" stroke="#000000" d="M756.7145,-119C756.7145,-119 577.7145,-119 577.7145,-119 571.7145,-119 565.7145,-113 565.7145,-107 565.7145,-107 565.7145,-95 565.7145,-95 565.7145,-89 571.7145,-83 577.7145,-83 577.7145,-83 756.7145,-83 756.7145,-83 762.7145,-83 768.7145,-89 768.7145,-95 768.7145,-95 768.7145,-107 768.7145,-107 768.7145,-113 762.7145,-119 756.7145,-119"/>
<text text-anchor="middle" x="667.2145" y="-97.3" font-family="Times,serif" font-size="14.00" fill="#314b5f">symfony/polyfill&#45;mbstring: v1.8.0</text>
</g>
<!-- symfony/console&#45;&gt;symfony/polyfill&#45;mbstring -->
<g id="edge15" class="edge">
<title>symfony/console&#45;&gt;symfony/polyfill&#45;mbstring</title>
<path fill="none" stroke="#1a2833" d="M561.4715,-190.9232C582.4424,-173.0897 614.6629,-145.6896 638.0266,-125.8213"/>
<polygon fill="#1a2833" stroke="#1a2833" points="640.5377,-128.2803 645.8882,-119.1357 636.0029,-122.9477 640.5377,-128.2803"/>
<text text-anchor="middle" x="631.7145" y="-152.5" font-family="Times,serif" font-size="10.00" fill="#767676">~1.0</text>
</g>
<!-- vlucas/phpdotenv&#45;&gt;php -->
<g id="edge17" class="edge">
<title>vlucas/phpdotenv&#45;&gt;php</title>
<path fill="none" stroke="#1a2833" d="M771.5494,-136.7709C781.3891,-120.91 791.0374,-98.1513 778.2145,-83 752.6621,-52.8077 482.4423,-28.744 382.2867,-20.8009"/>
<polygon fill="#1a2833" stroke="#1a2833" points="382.5538,-17.3111 372.3108,-20.0186 382.0065,-24.2897 382.5538,-17.3111"/>
<text text-anchor="middle" x="800.7145" y="-98.5" font-family="Times,serif" font-size="10.00" fill="#767676">&gt;=5.3.9</text>
</g>
<!-- mhndev/config&#45;&gt;php -->
<g id="edge13" class="edge">
<title>mhndev/config&#45;&gt;php</title>
<path fill="none" stroke="#1a2833" d="M403.1576,-82.9902C392.9491,-71.5401 379.5691,-56.5328 368.2388,-43.8245"/>
<polygon fill="#1a2833" stroke="#1a2833" points="370.7629,-41.3962 361.4956,-36.2612 365.538,-46.0546 370.7629,-41.3962"/>
<text text-anchor="middle" x="402.7145" y="-57" font-family="Times,serif" font-size="10.00" fill="#767676">&gt;=5.3.0</text>
</g>
<!-- symfony/polyfill&#45;mbstring&#45;&gt;php -->
<g id="edge16" class="edge">
<title>symfony/polyfill&#45;mbstring&#45;&gt;php</title>
<path fill="none" stroke="#1a2833" d="M622.3082,-82.897C597.2763,-73.313 565.3603,-61.9217 536.2145,-54 483.6812,-39.7216 421.5044,-29.1422 382.7027,-23.2703"/>
<polygon fill="#1a2833" stroke="#1a2833" points="382.8119,-19.7481 372.406,-21.7398 381.7827,-26.6721 382.8119,-19.7481"/>
<text text-anchor="middle" x="584.7145" y="-57" font-family="Times,serif" font-size="10.00" fill="#767676">&gt;=5.3.3</text>
</g>
</g>
</svg>
