<?xml version="1.0" encoding="UTF-8" standalone="no"?>
<!DOCTYPE svg PUBLIC "-//W3C//DTD SVG 1.1//EN"
 "http://www.w3.org/Graphics/SVG/1.1/DTD/svg11.dtd">
<!-- Generated by graphviz version 2.40.1 (20161225.0304)
 -->
<!-- Title: G Pages: 1 -->
<svg width="219pt" height="210pt"
 viewBox="0.00 0.00 219.00 210.00" xmlns="http://www.w3.org/2000/svg" xmlns:xlink="http://www.w3.org/1999/xlink">
<g id="graph0" class="graph" transform="scale(1 1) rotate(0) translate(4 206)">
<title>G</title>
<polygon fill="#ffffff" stroke="transparent" points="-4,4 -4,-206 215,-206 215,4 -4,4"/>
<!-- apparat/artefakt&#45;core -->
<g id="node1" class="node">
<title>apparat/artefakt&#45;core</title>
<path fill="#eeeeee" stroke="#000000" stroke-width="2" d="M117,-202C117,-202 12,-202 12,-202 6,-202 0,-196 0,-190 0,-190 0,-178 0,-178 0,-172 6,-166 12,-166 12,-166 117,-166 117,-166 123,-166 129,-172 129,-178 129,-178 129,-190 129,-190 129,-196 123,-202 117,-202"/>
<text text-anchor="middle" x="64.5" y="-180.3" font-family="Times,serif" font-size="14.00" fill="#314b5f">apparat/artefakt&#45;core</text>
</g>
<!-- php -->
<g id="node2" class="node">
<title>php</title>
<path fill="#eeeeee" stroke="#000000" d="M71.5,-36C71.5,-36 41.5,-36 41.5,-36 35.5,-36 29.5,-30 29.5,-24 29.5,-24 29.5,-12 29.5,-12 29.5,-6 35.5,0 41.5,0 41.5,0 71.5,0 71.5,0 77.5,0 83.5,-6 83.5,-12 83.5,-12 83.5,-24 83.5,-24 83.5,-30 77.5,-36 71.5,-36"/>
<text text-anchor="middle" x="56.5" y="-14.3" font-family="Times,serif" font-size="14.00" fill="#314b5f">php</text>
</g>
<!-- apparat/artefakt&#45;core&#45;&gt;php -->
<g id="edge1" class="edge">
<title>apparat/artefakt&#45;core&#45;&gt;php</title>
<path fill="none" stroke="#1a2833" d="M62.0639,-165.8278C60.4367,-152.8153 58.4305,-134.8627 57.5,-119 56.0639,-94.5162 55.8985,-66.6381 56.044,-46.3827"/>
<polygon fill="#1a2833" stroke="#1a2833" points="59.5449,-46.2993 56.147,-36.2642 52.5453,-46.228 59.5449,-46.2993"/>
<text text-anchor="middle" x="70" y="-98.5" font-family="Times,serif" font-size="10.00" fill="#767676">&gt;=7.2</text>
</g>
<!-- cocur/slugify -->
<g id="node3" class="node">
<title>cocur/slugify</title>
<path fill="#eeeeee" stroke="#000000" d="M199,-119C199,-119 104,-119 104,-119 98,-119 92,-113 92,-107 92,-107 92,-95 92,-95 92,-89 98,-83 104,-83 104,-83 199,-83 199,-83 205,-83 211,-89 211,-95 211,-95 211,-107 211,-107 211,-113 205,-119 199,-119"/>
<text text-anchor="middle" x="151.5" y="-97.3" font-family="Times,serif" font-size="14.00" fill="#314b5f">cocur/slugify: v3.1</text>
</g>
<!-- apparat/artefakt&#45;core&#45;&gt;cocur/slugify -->
<g id="edge2" class="edge">
<title>apparat/artefakt&#45;core&#45;&gt;cocur/slugify</title>
<path fill="none" stroke="#1a2833" d="M83.3777,-165.9902C95.4928,-154.4321 111.4073,-139.2493 124.8073,-126.4655"/>
<polygon fill="#1a2833" stroke="#1a2833" points="127.5392,-128.6965 132.3587,-119.2612 122.7072,-123.6316 127.5392,-128.6965"/>
<text text-anchor="middle" x="122.5" y="-140" font-family="Times,serif" font-size="10.00" fill="#767676">^3.1</text>
</g>
<!-- cocur/slugify&#45;&gt;php -->
<g id="edge4" class="edge">
<title>cocur/slugify&#45;&gt;php</title>
<path fill="none" stroke="#1a2833" d="M130.8864,-82.9902C117.5336,-71.3241 99.9542,-55.9652 85.2377,-43.1077"/>
<polygon fill="#1a2833" stroke="#1a2833" points="87.2349,-40.205 77.4014,-36.2612 82.6293,-45.4764 87.2349,-40.205"/>
<text text-anchor="middle" x="127" y="-57" font-family="Times,serif" font-size="10.00" fill="#767676">&gt;=5.5.9</text>
</g>
<!-- ext&#45;mbstring -->
<g id="node4" class="node">
<title>ext&#45;mbstring</title>
<path fill="#eeeeee" stroke="#000000" d="M182.5,-36C182.5,-36 120.5,-36 120.5,-36 114.5,-36 108.5,-30 108.5,-24 108.5,-24 108.5,-12 108.5,-12 108.5,-6 114.5,0 120.5,0 120.5,0 182.5,0 182.5,0 188.5,0 194.5,-6 194.5,-12 194.5,-12 194.5,-24 194.5,-24 194.5,-30 188.5,-36 182.5,-36"/>
<text text-anchor="middle" x="151.5" y="-14.3" font-family="Times,serif" font-size="14.00" fill="#314b5f">ext&#45;mbstring</text>
</g>
<!-- cocur/slugify&#45;&gt;ext&#45;mbstring -->
<g id="edge3" class="edge">
<title>cocur/slugify&#45;&gt;ext&#45;mbstring</title>
<path fill="none" stroke="#1a2833" d="M151.5,-82.9902C151.5,-72.2963 151.5,-58.4994 151.5,-46.3706"/>
<polygon fill="#1a2833" stroke="#1a2833" points="155.0001,-46.2612 151.5,-36.2612 148.0001,-46.2613 155.0001,-46.2612"/>
<text text-anchor="middle" x="154.5" y="-57" font-family="Times,serif" font-size="10.00" fill="#767676">*</text>
</g>
</g>
</svg>
