<?xml version="1.0" encoding="UTF-8" standalone="no"?>
<!DOCTYPE svg PUBLIC "-//W3C//DTD SVG 1.1//EN"
 "http://www.w3.org/Graphics/SVG/1.1/DTD/svg11.dtd">
<!-- Generated by graphviz version 2.40.1 (20161225.0304)
 -->
<!-- Title: G Pages: 1 -->
<svg width="898pt" height="318pt"
 viewBox="0.00 0.00 897.89 318.00" xmlns="http://www.w3.org/2000/svg" xmlns:xlink="http://www.w3.org/1999/xlink">
<g id="graph0" class="graph" transform="scale(1 1) rotate(0) translate(4 314)">
<title>G</title>
<polygon fill="#ffffff" stroke="transparent" points="-4,4 -4,-314 893.8913,-314 893.8913,4 -4,4"/>
<!-- apparat/artefakt&#45;core -->
<g id="node1" class="node">
<title>apparat/artefakt&#45;core</title>
<path fill="#eeeeee" stroke="#000000" stroke-width="2" d="M357.8913,-310C357.8913,-310 252.8913,-310 252.8913,-310 246.8913,-310 240.8913,-304 240.8913,-298 240.8913,-298 240.8913,-286 240.8913,-286 240.8913,-280 246.8913,-274 252.8913,-274 252.8913,-274 357.8913,-274 357.8913,-274 363.8913,-274 369.8913,-280 369.8913,-286 369.8913,-286 369.8913,-298 369.8913,-298 369.8913,-304 363.8913,-310 357.8913,-310"/>
<text text-anchor="middle" x="305.3913" y="-288.3" font-family="Times,serif" font-size="14.00" fill="#314b5f">apparat/artefakt&#45;core</text>
</g>
<!-- php -->
<g id="node2" class="node">
<title>php</title>
<path fill="#eeeeee" stroke="#000000" d="M354.3913,-36C354.3913,-36 324.3913,-36 324.3913,-36 318.3913,-36 312.3913,-30 312.3913,-24 312.3913,-24 312.3913,-12 312.3913,-12 312.3913,-6 318.3913,0 324.3913,0 324.3913,0 354.3913,0 354.3913,0 360.3913,0 366.3913,-6 366.3913,-12 366.3913,-12 366.3913,-24 366.3913,-24 366.3913,-30 360.3913,-36 354.3913,-36"/>
<text text-anchor="middle" x="339.3913" y="-14.3" font-family="Times,serif" font-size="14.00" fill="#314b5f">php</text>
</g>
<!-- apparat/artefakt&#45;core&#45;&gt;php -->
<g id="edge1" class="edge">
<title>apparat/artefakt&#45;core&#45;&gt;php</title>
<path fill="none" stroke="#1a2833" d="M240.7467,-286.1926C164.6178,-277.9307 44.7747,-259.9915 15.3913,-227 -11.2714,-197.0632 4.6669,-176.8094 9.3913,-137 12.3005,-112.4863 8.5403,-103.4336 22.3913,-83 34.9149,-64.5248 42.6035,-62.1265 63.3913,-54 106.0237,-37.3338 236.7144,-25.619 301.7793,-20.6546"/>
<polygon fill="#1a2833" stroke="#1a2833" points="302.2984,-24.1256 312.0091,-19.8886 301.7756,-17.1452 302.2984,-24.1256"/>
<text text-anchor="middle" x="18.3913" y="-152.5" font-family="Times,serif" font-size="10.00" fill="#767676">^7.2</text>
</g>
<!-- ext&#45;json -->
<g id="node3" class="node">
<title>ext&#45;json</title>
<path fill="#eeeeee" stroke="#000000" d="M72.3913,-227C72.3913,-227 36.3913,-227 36.3913,-227 30.3913,-227 24.3913,-221 24.3913,-215 24.3913,-215 24.3913,-203 24.3913,-203 24.3913,-197 30.3913,-191 36.3913,-191 36.3913,-191 72.3913,-191 72.3913,-191 78.3913,-191 84.3913,-197 84.3913,-203 84.3913,-203 84.3913,-215 84.3913,-215 84.3913,-221 78.3913,-227 72.3913,-227"/>
<text text-anchor="middle" x="54.3913" y="-205.3" font-family="Times,serif" font-size="14.00" fill="#314b5f">ext&#45;json</text>
</g>
<!-- apparat/artefakt&#45;core&#45;&gt;ext&#45;json -->
<g id="edge2" class="edge">
<title>apparat/artefakt&#45;core&#45;&gt;ext&#45;json</title>
<path fill="none" stroke="#1a2833" d="M240.6152,-274.5949C200.5569,-263.2657 148.0552,-247.3996 93.8716,-226.9561"/>
<polygon fill="#1a2833" stroke="#1a2833" points="95.0438,-223.6573 84.4531,-223.3621 92.5482,-230.1973 95.0438,-223.6573"/>
<text text-anchor="middle" x="177.3913" y="-248" font-family="Times,serif" font-size="10.00" fill="#767676">*</text>
</g>
<!-- cocur/slugify -->
<g id="node4" class="node">
<title>cocur/slugify</title>
<path fill="#eeeeee" stroke="#000000" d="M209.8913,-227C209.8913,-227 114.8913,-227 114.8913,-227 108.8913,-227 102.8913,-221 102.8913,-215 102.8913,-215 102.8913,-203 102.8913,-203 102.8913,-197 108.8913,-191 114.8913,-191 114.8913,-191 209.8913,-191 209.8913,-191 215.8913,-191 221.8913,-197 221.8913,-203 221.8913,-203 221.8913,-215 221.8913,-215 221.8913,-221 215.8913,-227 209.8913,-227"/>
<text text-anchor="middle" x="162.3913" y="-205.3" font-family="Times,serif" font-size="14.00" fill="#314b5f">cocur/slugify: v3.1</text>
</g>
<!-- apparat/artefakt&#45;core&#45;&gt;cocur/slugify -->
<g id="edge3" class="edge">
<title>apparat/artefakt&#45;core&#45;&gt;cocur/slugify</title>
<path fill="none" stroke="#1a2833" d="M252.2156,-273.85C240.0637,-268.7962 227.4728,-262.7985 216.3913,-256 206.3338,-249.8297 196.3093,-241.772 187.6766,-234.0754"/>
<polygon fill="#1a2833" stroke="#1a2833" points="189.9066,-231.371 180.1788,-227.1731 185.1655,-236.5211 189.9066,-231.371"/>
<text text-anchor="middle" x="225.3913" y="-248" font-family="Times,serif" font-size="10.00" fill="#767676">^3.1</text>
</g>
<!-- codervio/envmanager -->
<g id="node5" class="node">
<title>codervio/envmanager</title>
<path fill="#eeeeee" stroke="#000000" d="M220.8913,-173C220.8913,-173 85.8913,-173 85.8913,-173 79.8913,-173 73.8913,-167 73.8913,-161 73.8913,-161 73.8913,-149 73.8913,-149 73.8913,-143 79.8913,-137 85.8913,-137 85.8913,-137 220.8913,-137 220.8913,-137 226.8913,-137 232.8913,-143 232.8913,-149 232.8913,-149 232.8913,-161 232.8913,-161 232.8913,-167 226.8913,-173 220.8913,-173"/>
<text text-anchor="middle" x="153.3913" y="-151.3" font-family="Times,serif" font-size="14.00" fill="#314b5f">codervio/envmanager: 1.7</text>
</g>
<!-- apparat/artefakt&#45;core&#45;&gt;codervio/envmanager -->
<g id="edge4" class="edge">
<title>apparat/artefakt&#45;core&#45;&gt;codervio/envmanager</title>
<path fill="none" stroke="#1a2833" d="M295.6449,-273.8019C283.066,-251.7496 259.3208,-214.62 230.3913,-191 224.3633,-186.0784 217.5514,-181.6568 210.5344,-177.738"/>
<polygon fill="#1a2833" stroke="#1a2833" points="212.0617,-174.587 201.5799,-173.0435 208.8114,-180.7866 212.0617,-174.587"/>
<text text-anchor="middle" x="293.3913" y="-248" font-family="Times,serif" font-size="10.00" fill="#767676">^1.7</text>
</g>
<!-- justinrainbow/json&#45;schema -->
<g id="node6" class="node">
<title>justinrainbow/json&#45;schema</title>
<path fill="#eeeeee" stroke="#000000" d="M424.3913,-173C424.3913,-173 250.3913,-173 250.3913,-173 244.3913,-173 238.3913,-167 238.3913,-161 238.3913,-161 238.3913,-149 238.3913,-149 238.3913,-143 244.3913,-137 250.3913,-137 250.3913,-137 424.3913,-137 424.3913,-137 430.3913,-137 436.3913,-143 436.3913,-149 436.3913,-149 436.3913,-161 436.3913,-161 436.3913,-167 430.3913,-173 424.3913,-173"/>
<text text-anchor="middle" x="337.3913" y="-151.3" font-family="Times,serif" font-size="14.00" fill="#314b5f">justinrainbow/json&#45;schema: 5.2.7</text>
</g>
<!-- apparat/artefakt&#45;core&#45;&gt;justinrainbow/json&#45;schema -->
<g id="edge5" class="edge">
<title>apparat/artefakt&#45;core&#45;&gt;justinrainbow/json&#45;schema</title>
<path fill="none" stroke="#1a2833" d="M309.6407,-273.8075C315.0439,-250.675 324.4316,-210.4836 330.7754,-183.3242"/>
<polygon fill="#1a2833" stroke="#1a2833" points="334.258,-183.8018 333.1244,-173.2678 327.4415,-182.2096 334.258,-183.8018"/>
<text text-anchor="middle" x="324.3913" y="-248" font-family="Times,serif" font-size="10.00" fill="#767676">^5.2</text>
</g>
<!-- symfony/console -->
<g id="node7" class="node">
<title>symfony/console</title>
<path fill="#eeeeee" stroke="#000000" d="M515.3913,-227C515.3913,-227 387.3913,-227 387.3913,-227 381.3913,-227 375.3913,-221 375.3913,-215 375.3913,-215 375.3913,-203 375.3913,-203 375.3913,-197 381.3913,-191 387.3913,-191 387.3913,-191 515.3913,-191 515.3913,-191 521.3913,-191 527.3913,-197 527.3913,-203 527.3913,-203 527.3913,-215 527.3913,-215 527.3913,-221 521.3913,-227 515.3913,-227"/>
<text text-anchor="middle" x="451.3913" y="-205.3" font-family="Times,serif" font-size="14.00" fill="#314b5f">symfony/console: v4.1.0</text>
</g>
<!-- apparat/artefakt&#45;core&#45;&gt;symfony/console -->
<g id="edge6" class="edge">
<title>apparat/artefakt&#45;core&#45;&gt;symfony/console</title>
<path fill="none" stroke="#1a2833" d="M337.0711,-273.9902C358.6164,-261.7419 387.3218,-245.4231 410.5778,-232.2022"/>
<polygon fill="#1a2833" stroke="#1a2833" points="412.5579,-235.1026 419.5216,-227.1177 409.0984,-229.0172 412.5579,-235.1026"/>
<text text-anchor="middle" x="395.3913" y="-248" font-family="Times,serif" font-size="10.00" fill="#767676">^4.1</text>
</g>
<!-- vlucas/phpdotenv -->
<g id="node8" class="node">
<title>vlucas/phpdotenv</title>
<path fill="#eeeeee" stroke="#000000" d="M657.3913,-173C657.3913,-173 527.3913,-173 527.3913,-173 521.3913,-173 515.3913,-167 515.3913,-161 515.3913,-161 515.3913,-149 515.3913,-149 515.3913,-143 521.3913,-137 527.3913,-137 527.3913,-137 657.3913,-137 657.3913,-137 663.3913,-137 669.3913,-143 669.3913,-149 669.3913,-149 669.3913,-161 669.3913,-161 669.3913,-167 663.3913,-173 657.3913,-173"/>
<text text-anchor="middle" x="592.3913" y="-151.3" font-family="Times,serif" font-size="14.00" fill="#314b5f">vlucas/phpdotenv: v2.4.0</text>
</g>
<!-- apparat/artefakt&#45;core&#45;&gt;vlucas/phpdotenv -->
<g id="edge7" class="edge">
<title>apparat/artefakt&#45;core&#45;&gt;vlucas/phpdotenv</title>
<path fill="none" stroke="#1a2833" d="M369.9978,-284.9091C419.0446,-277.0302 486.3493,-260.6527 536.3913,-227 553.5277,-215.476 567.7368,-197.0095 577.5544,-181.6639"/>
<polygon fill="#1a2833" stroke="#1a2833" points="580.5819,-183.4219 582.8162,-173.0653 574.6111,-179.7681 580.5819,-183.4219"/>
<text text-anchor="middle" x="512.3913" y="-248" font-family="Times,serif" font-size="10.00" fill="#767676">^2.4</text>
</g>
<!-- webmozart/path&#45;util -->
<g id="node9" class="node">
<title>webmozart/path&#45;util</title>
<path fill="#eeeeee" stroke="#000000" d="M760.3913,-227C760.3913,-227 622.3913,-227 622.3913,-227 616.3913,-227 610.3913,-221 610.3913,-215 610.3913,-215 610.3913,-203 610.3913,-203 610.3913,-197 616.3913,-191 622.3913,-191 622.3913,-191 760.3913,-191 760.3913,-191 766.3913,-191 772.3913,-197 772.3913,-203 772.3913,-203 772.3913,-215 772.3913,-215 772.3913,-221 766.3913,-227 760.3913,-227"/>
<text text-anchor="middle" x="691.3913" y="-205.3" font-family="Times,serif" font-size="14.00" fill="#314b5f">webmozart/path&#45;util: 2.3.0</text>
</g>
<!-- apparat/artefakt&#45;core&#45;&gt;webmozart/path&#45;util -->
<g id="edge8" class="edge">
<title>apparat/artefakt&#45;core&#45;&gt;webmozart/path&#45;util</title>
<path fill="none" stroke="#1a2833" d="M370.1685,-289.6331C428.911,-286.1347 517.373,-277.4678 591.3913,-256 611.6301,-250.1301 632.913,-240.6435 650.6173,-231.7251"/>
<polygon fill="#1a2833" stroke="#1a2833" points="652.2387,-234.827 659.5248,-227.1352 649.0324,-228.6045 652.2387,-234.827"/>
<text text-anchor="middle" x="628.3913" y="-248" font-family="Times,serif" font-size="10.00" fill="#767676">^2.3</text>
</g>
<!-- cocur/slugify&#45;&gt;php -->
<g id="edge10" class="edge">
<title>cocur/slugify&#45;&gt;php</title>
<path fill="none" stroke="#1a2833" d="M102.7607,-193.5228C83.0988,-187.3917 64.4468,-180.116 57.3913,-173 28.6704,-144.0326 13.7823,-114.7518 39.3913,-83 71.9967,-42.5735 228.863,-26.0263 301.8684,-20.4313"/>
<polygon fill="#1a2833" stroke="#1a2833" points="302.2909,-23.9097 312.0064,-19.6837 301.7761,-16.9287 302.2909,-23.9097"/>
<text text-anchor="middle" x="55.8913" y="-98.5" font-family="Times,serif" font-size="10.00" fill="#767676">&gt;=5.5.9</text>
</g>
<!-- ext&#45;mbstring -->
<g id="node10" class="node">
<title>ext&#45;mbstring</title>
<path fill="#eeeeee" stroke="#000000" d="M155.3913,-119C155.3913,-119 93.3913,-119 93.3913,-119 87.3913,-119 81.3913,-113 81.3913,-107 81.3913,-107 81.3913,-95 81.3913,-95 81.3913,-89 87.3913,-83 93.3913,-83 93.3913,-83 155.3913,-83 155.3913,-83 161.3913,-83 167.3913,-89 167.3913,-95 167.3913,-95 167.3913,-107 167.3913,-107 167.3913,-113 161.3913,-119 155.3913,-119"/>
<text text-anchor="middle" x="124.3913" y="-97.3" font-family="Times,serif" font-size="14.00" fill="#314b5f">ext&#45;mbstring</text>
</g>
<!-- cocur/slugify&#45;&gt;ext&#45;mbstring -->
<g id="edge9" class="edge">
<title>cocur/slugify&#45;&gt;ext&#45;mbstring</title>
<path fill="none" stroke="#1a2833" d="M102.8319,-192.4643C86.612,-186.7001 72.1764,-179.9305 67.3913,-173 58.3005,-159.8335 59.6681,-151.0125 67.3913,-137 69.7395,-132.7397 72.8276,-128.9138 76.3536,-125.4936"/>
<polygon fill="#1a2833" stroke="#1a2833" points="78.6654,-128.1231 84.1091,-119.0337 74.1854,-122.7445 78.6654,-128.1231"/>
<text text-anchor="middle" x="70.3913" y="-152.5" font-family="Times,serif" font-size="10.00" fill="#767676">*</text>
</g>
<!-- codervio/envmanager&#45;&gt;php -->
<g id="edge11" class="edge">
<title>codervio/envmanager&#45;&gt;php</title>
<path fill="none" stroke="#1a2833" d="M177.8795,-136.6448C205.0462,-116.3216 250.2206,-82.6441 289.3913,-54 294.6609,-50.1466 300.2597,-46.0844 305.7313,-42.132"/>
<polygon fill="#1a2833" stroke="#1a2833" points="308.0934,-44.7439 314.1591,-36.0572 304.0002,-39.0653 308.0934,-44.7439"/>
<text text-anchor="middle" x="258.3913" y="-98.5" font-family="Times,serif" font-size="10.00" fill="#767676">^7.0</text>
</g>
<!-- justinrainbow/json&#45;schema&#45;&gt;php -->
<g id="edge12" class="edge">
<title>justinrainbow/json&#45;schema&#45;&gt;php</title>
<path fill="none" stroke="#1a2833" d="M300.4196,-136.9098C293.972,-132.0215 288.1397,-126.0774 284.3913,-119 276.9027,-104.8607 278.888,-98.0238 284.3913,-83 289.8445,-68.1132 300.3818,-54.2914 310.7863,-43.2551"/>
<polygon fill="#1a2833" stroke="#1a2833" points="313.3456,-45.6449 317.904,-36.0808 308.3763,-40.7148 313.3456,-45.6449"/>
<text text-anchor="middle" x="300.8913" y="-98.5" font-family="Times,serif" font-size="10.00" fill="#767676">&gt;=5.3.3</text>
</g>
<!-- symfony/console&#45;&gt;php -->
<g id="edge13" class="edge">
<title>symfony/console&#45;&gt;php</title>
<path fill="none" stroke="#1a2833" d="M453.0589,-190.7706C453.4828,-174.4608 451.2801,-151.0244 437.3913,-137 409.3004,-108.6349 376.128,-148.645 349.3913,-119 331.8684,-99.571 331.3085,-68.7019 333.929,-46.1999"/>
<polygon fill="#1a2833" stroke="#1a2833" points="337.4055,-46.6124 335.3585,-36.2172 330.4762,-45.62 337.4055,-46.6124"/>
<text text-anchor="middle" x="361.8913" y="-98.5" font-family="Times,serif" font-size="10.00" fill="#767676">^7.1.3</text>
</g>
<!-- symfony/polyfill&#45;mbstring -->
<g id="node11" class="node">
<title>symfony/polyfill&#45;mbstring</title>
<path fill="#eeeeee" stroke="#000000" d="M573.8913,-119C573.8913,-119 394.8913,-119 394.8913,-119 388.8913,-119 382.8913,-113 382.8913,-107 382.8913,-107 382.8913,-95 382.8913,-95 382.8913,-89 388.8913,-83 394.8913,-83 394.8913,-83 573.8913,-83 573.8913,-83 579.8913,-83 585.8913,-89 585.8913,-95 585.8913,-95 585.8913,-107 585.8913,-107 585.8913,-113 579.8913,-119 573.8913,-119"/>
<text text-anchor="middle" x="484.3913" y="-97.3" font-family="Times,serif" font-size="14.00" fill="#314b5f">symfony/polyfill&#45;mbstring: v1.8.0</text>
</g>
<!-- symfony/console&#45;&gt;symfony/polyfill&#45;mbstring -->
<g id="edge14" class="edge">
<title>symfony/console&#45;&gt;symfony/polyfill&#45;mbstring</title>
<path fill="none" stroke="#1a2833" d="M456.9893,-190.6793C462.1643,-173.7429 469.929,-148.3311 475.8731,-128.8777"/>
<polygon fill="#1a2833" stroke="#1a2833" points="479.301,-129.6365 478.876,-119.0502 472.6065,-127.5909 479.301,-129.6365"/>
<text text-anchor="middle" x="481.8913" y="-152.5" font-family="Times,serif" font-size="10.00" fill="#767676">~1.0</text>
</g>
<!-- vlucas/phpdotenv&#45;&gt;php -->
<g id="edge16" class="edge">
<title>vlucas/phpdotenv&#45;&gt;php</title>
<path fill="none" stroke="#1a2833" d="M599.1648,-136.7504C603.7766,-120.876 607.1436,-98.1091 595.3913,-83 568.7228,-48.714 441.3214,-29.5759 376.8878,-21.9428"/>
<polygon fill="#1a2833" stroke="#1a2833" points="377.0752,-18.4413 366.7404,-20.7744 376.2744,-25.3954 377.0752,-18.4413"/>
<text text-anchor="middle" x="619.8913" y="-98.5" font-family="Times,serif" font-size="10.00" fill="#767676">&gt;=5.3.9</text>
</g>
<!-- webmozart/path&#45;util&#45;&gt;php -->
<g id="edge18" class="edge">
<title>webmozart/path&#45;util&#45;&gt;php</title>
<path fill="none" stroke="#1a2833" d="M689.9377,-190.9529C688.2576,-176.0219 684.7168,-154.5027 677.3913,-137 666.1589,-110.1625 663.0331,-101.2694 640.3913,-83 613.8637,-61.5952 602.2289,-63.1417 569.3913,-54 502.9262,-35.4967 422.8343,-25.6629 376.8412,-21.164"/>
<polygon fill="#1a2833" stroke="#1a2833" points="377.0217,-17.6655 366.7366,-20.2082 376.3625,-24.6344 377.0217,-17.6655"/>
<text text-anchor="middle" x="685.8913" y="-98.5" font-family="Times,serif" font-size="10.00" fill="#767676">&gt;=5.3.3</text>
</g>
<!-- webmozart/assert -->
<g id="node12" class="node">
<title>webmozart/assert</title>
<path fill="#eeeeee" stroke="#000000" d="M877.8913,-119C877.8913,-119 754.8913,-119 754.8913,-119 748.8913,-119 742.8913,-113 742.8913,-107 742.8913,-107 742.8913,-95 742.8913,-95 742.8913,-89 748.8913,-83 754.8913,-83 754.8913,-83 877.8913,-83 877.8913,-83 883.8913,-83 889.8913,-89 889.8913,-95 889.8913,-95 889.8913,-107 889.8913,-107 889.8913,-113 883.8913,-119 877.8913,-119"/>
<text text-anchor="middle" x="816.3913" y="-97.3" font-family="Times,serif" font-size="14.00" fill="#314b5f">webmozart/assert: 1.3.0</text>
</g>
<!-- webmozart/path&#45;util&#45;&gt;webmozart/assert -->
<g id="edge19" class="edge">
<title>webmozart/path&#45;util&#45;&gt;webmozart/assert</title>
<path fill="none" stroke="#1a2833" d="M712.3135,-190.9232C732.9542,-173.0897 764.6672,-145.6896 787.663,-125.8213"/>
<polygon fill="#1a2833" stroke="#1a2833" points="790.1222,-128.322 795.4009,-119.1357 785.5457,-123.0251 790.1222,-128.322"/>
<text text-anchor="middle" x="781.8913" y="-152.5" font-family="Times,serif" font-size="10.00" fill="#767676">~1.0</text>
</g>
<!-- symfony/polyfill&#45;mbstring&#45;&gt;php -->
<g id="edge15" class="edge">
<title>symfony/polyfill&#45;mbstring&#45;&gt;php</title>
<path fill="none" stroke="#1a2833" d="M452.9285,-82.9902C430.0329,-69.8845 398.9956,-52.1183 375.1584,-38.4736"/>
<polygon fill="#1a2833" stroke="#1a2833" points="376.8246,-35.3945 366.4071,-33.4642 373.3471,-41.4696 376.8246,-35.3945"/>
<text text-anchor="middle" x="436.8913" y="-57" font-family="Times,serif" font-size="10.00" fill="#767676">&gt;=5.3.3</text>
</g>
<!-- webmozart/assert&#45;&gt;php -->
<g id="edge17" class="edge">
<title>webmozart/assert&#45;&gt;php</title>
<path fill="none" stroke="#1a2833" d="M781.3522,-82.9286C759.9677,-72.7272 731.7557,-60.712 705.3913,-54 643.8808,-38.3403 457.1473,-25.2901 376.8031,-20.2418"/>
<polygon fill="#1a2833" stroke="#1a2833" points="376.8434,-16.7376 366.6455,-19.6107 376.4092,-23.7241 376.8434,-16.7376"/>
<text text-anchor="middle" x="762.3913" y="-57" font-family="Times,serif" font-size="10.00" fill="#767676">^5.3.3 || ^7.0</text>
</g>
</g>
</svg>
