<?xml version="1.0" encoding="UTF-8" standalone="no"?>
<!DOCTYPE svg PUBLIC "-//W3C//DTD SVG 1.1//EN"
 "http://www.w3.org/Graphics/SVG/1.1/DTD/svg11.dtd">
<!-- Generated by graphviz version 2.40.1 (20161225.0304)
 -->
<!-- Title: G Pages: 1 -->
<svg width="383pt" height="210pt"
 viewBox="0.00 0.00 382.50 210.00" xmlns="http://www.w3.org/2000/svg" xmlns:xlink="http://www.w3.org/1999/xlink">
<g id="graph0" class="graph" transform="scale(1 1) rotate(0) translate(4 206)">
<title>G</title>
<polygon fill="#ffffff" stroke="transparent" points="-4,4 -4,-206 378.5,-206 378.5,4 -4,4"/>
<!-- apparat/artefakt&#45;core -->
<g id="node1" class="node">
<title>apparat/artefakt&#45;core</title>
<path fill="#eeeeee" stroke="#000000" stroke-width="2" d="M289,-202C289,-202 184,-202 184,-202 178,-202 172,-196 172,-190 172,-190 172,-178 172,-178 172,-172 178,-166 184,-166 184,-166 289,-166 289,-166 295,-166 301,-172 301,-178 301,-178 301,-190 301,-190 301,-196 295,-202 289,-202"/>
<text text-anchor="middle" x="236.5" y="-180.3" font-family="Times,serif" font-size="14.00" fill="#314b5f">apparat/artefakt&#45;core</text>
</g>
<!-- php -->
<g id="node2" class="node">
<title>php</title>
<path fill="#eeeeee" stroke="#000000" d="M251.5,-36C251.5,-36 221.5,-36 221.5,-36 215.5,-36 209.5,-30 209.5,-24 209.5,-24 209.5,-12 209.5,-12 209.5,-6 215.5,0 221.5,0 221.5,0 251.5,0 251.5,0 257.5,0 263.5,-6 263.5,-12 263.5,-12 263.5,-24 263.5,-24 263.5,-30 257.5,-36 251.5,-36"/>
<text text-anchor="middle" x="236.5" y="-14.3" font-family="Times,serif" font-size="14.00" fill="#314b5f">php</text>
</g>
<!-- apparat/artefakt&#45;core&#45;&gt;php -->
<g id="edge1" class="edge">
<title>apparat/artefakt&#45;core&#45;&gt;php</title>
<path fill="none" stroke="#1a2833" d="M288.5573,-165.9646C309.862,-155.7146 332.3308,-140.5273 344.5,-119 352.3737,-105.0714 352.3737,-96.9286 344.5,-83 329.3835,-56.259 298.3746,-39.3009 273.4458,-29.437"/>
<polygon fill="#1a2833" stroke="#1a2833" points="274.484,-26.0889 263.8913,-25.8777 272.0403,-32.6485 274.484,-26.0889"/>
<text text-anchor="middle" x="362" y="-98.5" font-family="Times,serif" font-size="10.00" fill="#767676">&gt;=7.2</text>
</g>
<!-- cocur/slugify -->
<g id="node3" class="node">
<title>cocur/slugify</title>
<path fill="#eeeeee" stroke="#000000" d="M107,-119C107,-119 12,-119 12,-119 6,-119 0,-113 0,-107 0,-107 0,-95 0,-95 0,-89 6,-83 12,-83 12,-83 107,-83 107,-83 113,-83 119,-89 119,-95 119,-95 119,-107 119,-107 119,-113 113,-119 107,-119"/>
<text text-anchor="middle" x="59.5" y="-97.3" font-family="Times,serif" font-size="14.00" fill="#314b5f">cocur/slugify: v3.1</text>
</g>
<!-- apparat/artefakt&#45;core&#45;&gt;cocur/slugify -->
<g id="edge2" class="edge">
<title>apparat/artefakt&#45;core&#45;&gt;cocur/slugify</title>
<path fill="none" stroke="#1a2833" d="M198.0936,-165.9902C171.5114,-153.5251 135.9388,-136.8442 107.4886,-123.5031"/>
<polygon fill="#1a2833" stroke="#1a2833" points="108.6766,-120.1946 98.1366,-119.1177 105.7046,-126.5323 108.6766,-120.1946"/>
<text text-anchor="middle" x="168.5" y="-140" font-family="Times,serif" font-size="10.00" fill="#767676">^3.1</text>
</g>
<!-- justinrainbow/json&#45;schema -->
<g id="node4" class="node">
<title>justinrainbow/json&#45;schema</title>
<path fill="#eeeeee" stroke="#000000" d="M323.5,-119C323.5,-119 149.5,-119 149.5,-119 143.5,-119 137.5,-113 137.5,-107 137.5,-107 137.5,-95 137.5,-95 137.5,-89 143.5,-83 149.5,-83 149.5,-83 323.5,-83 323.5,-83 329.5,-83 335.5,-89 335.5,-95 335.5,-95 335.5,-107 335.5,-107 335.5,-113 329.5,-119 323.5,-119"/>
<text text-anchor="middle" x="236.5" y="-97.3" font-family="Times,serif" font-size="14.00" fill="#314b5f">justinrainbow/json&#45;schema: 5.2.7</text>
</g>
<!-- apparat/artefakt&#45;core&#45;&gt;justinrainbow/json&#45;schema -->
<g id="edge3" class="edge">
<title>apparat/artefakt&#45;core&#45;&gt;justinrainbow/json&#45;schema</title>
<path fill="none" stroke="#1a2833" d="M236.5,-165.9902C236.5,-155.2963 236.5,-141.4994 236.5,-129.3706"/>
<polygon fill="#1a2833" stroke="#1a2833" points="240.0001,-129.2612 236.5,-119.2612 233.0001,-129.2613 240.0001,-129.2612"/>
<text text-anchor="middle" x="245.5" y="-140" font-family="Times,serif" font-size="10.00" fill="#767676">^5.2</text>
</g>
<!-- cocur/slugify&#45;&gt;php -->
<g id="edge5" class="edge">
<title>cocur/slugify&#45;&gt;php</title>
<path fill="none" stroke="#1a2833" d="M97.9064,-82.9902C128.2739,-68.7501 170.3748,-49.0079 200.1857,-35.0288"/>
<polygon fill="#1a2833" stroke="#1a2833" points="201.8342,-38.1215 209.4022,-30.7069 198.8622,-31.7837 201.8342,-38.1215"/>
<text text-anchor="middle" x="176" y="-57" font-family="Times,serif" font-size="10.00" fill="#767676">&gt;=5.5.9</text>
</g>
<!-- ext&#45;mbstring -->
<g id="node5" class="node">
<title>ext&#45;mbstring</title>
<path fill="#eeeeee" stroke="#000000" d="M90.5,-36C90.5,-36 28.5,-36 28.5,-36 22.5,-36 16.5,-30 16.5,-24 16.5,-24 16.5,-12 16.5,-12 16.5,-6 22.5,0 28.5,0 28.5,0 90.5,0 90.5,0 96.5,0 102.5,-6 102.5,-12 102.5,-12 102.5,-24 102.5,-24 102.5,-30 96.5,-36 90.5,-36"/>
<text text-anchor="middle" x="59.5" y="-14.3" font-family="Times,serif" font-size="14.00" fill="#314b5f">ext&#45;mbstring</text>
</g>
<!-- cocur/slugify&#45;&gt;ext&#45;mbstring -->
<g id="edge4" class="edge">
<title>cocur/slugify&#45;&gt;ext&#45;mbstring</title>
<path fill="none" stroke="#1a2833" d="M59.5,-82.9902C59.5,-72.2963 59.5,-58.4994 59.5,-46.3706"/>
<polygon fill="#1a2833" stroke="#1a2833" points="63.0001,-46.2612 59.5,-36.2612 56.0001,-46.2613 63.0001,-46.2612"/>
<text text-anchor="middle" x="62.5" y="-57" font-family="Times,serif" font-size="10.00" fill="#767676">*</text>
</g>
<!-- justinrainbow/json&#45;schema&#45;&gt;php -->
<g id="edge6" class="edge">
<title>justinrainbow/json&#45;schema&#45;&gt;php</title>
<path fill="none" stroke="#1a2833" d="M236.5,-82.9902C236.5,-72.2963 236.5,-58.4994 236.5,-46.3706"/>
<polygon fill="#1a2833" stroke="#1a2833" points="240.0001,-46.2612 236.5,-36.2612 233.0001,-46.2613 240.0001,-46.2612"/>
<text text-anchor="middle" x="253" y="-57" font-family="Times,serif" font-size="10.00" fill="#767676">&gt;=5.3.3</text>
</g>
</g>
</svg>
