<?xml version="1.0" encoding="UTF-8" standalone="no"?>
<!DOCTYPE svg PUBLIC "-//W3C//DTD SVG 1.1//EN"
 "http://www.w3.org/Graphics/SVG/1.1/DTD/svg11.dtd">
<!-- Generated by graphviz version 2.40.1 (20161225.0304)
 -->
<!-- Title: G Pages: 1 -->
<svg width="636pt" height="318pt"
 viewBox="0.00 0.00 636.08 318.00" xmlns="http://www.w3.org/2000/svg" xmlns:xlink="http://www.w3.org/1999/xlink">
<g id="graph0" class="graph" transform="scale(1 1) rotate(0) translate(4 314)">
<title>G</title>
<polygon fill="#ffffff" stroke="transparent" points="-4,4 -4,-314 632.0802,-314 632.0802,4 -4,4"/>
<!-- apparat/artefakt&#45;core -->
<g id="node1" class="node">
<title>apparat/artefakt&#45;core</title>
<path fill="#eeeeee" stroke="#000000" stroke-width="2" d="M270.5802,-310C270.5802,-310 165.5802,-310 165.5802,-310 159.5802,-310 153.5802,-304 153.5802,-298 153.5802,-298 153.5802,-286 153.5802,-286 153.5802,-280 159.5802,-274 165.5802,-274 165.5802,-274 270.5802,-274 270.5802,-274 276.5802,-274 282.5802,-280 282.5802,-286 282.5802,-286 282.5802,-298 282.5802,-298 282.5802,-304 276.5802,-310 270.5802,-310"/>
<text text-anchor="middle" x="218.0802" y="-288.3" font-family="Times,serif" font-size="14.00" fill="#314b5f">apparat/artefakt&#45;core</text>
</g>
<!-- php -->
<g id="node2" class="node">
<title>php</title>
<path fill="#eeeeee" stroke="#000000" d="M284.0802,-36C284.0802,-36 254.0802,-36 254.0802,-36 248.0802,-36 242.0802,-30 242.0802,-24 242.0802,-24 242.0802,-12 242.0802,-12 242.0802,-6 248.0802,0 254.0802,0 254.0802,0 284.0802,0 284.0802,0 290.0802,0 296.0802,-6 296.0802,-12 296.0802,-12 296.0802,-24 296.0802,-24 296.0802,-30 290.0802,-36 284.0802,-36"/>
<text text-anchor="middle" x="269.0802" y="-14.3" font-family="Times,serif" font-size="14.00" fill="#314b5f">php</text>
</g>
<!-- apparat/artefakt&#45;core&#45;&gt;php -->
<g id="edge1" class="edge">
<title>apparat/artefakt&#45;core&#45;&gt;php</title>
<path fill="none" stroke="#1a2833" d="M153.3735,-280.9294C97.4727,-269.891 22.9382,-251.1207 5.0802,-227 -4.4403,-214.1408 2.2574,-206.749 5.0802,-191 17.2894,-122.8819 16.6679,-83.897 79.0802,-54 105.5407,-41.3248 184.4352,-29.1765 231.8321,-22.744"/>
<polygon fill="#1a2833" stroke="#1a2833" points="232.5606,-26.1779 242.0092,-21.3849 231.6339,-19.2395 232.5606,-26.1779"/>
<text text-anchor="middle" x="27.5802" y="-152.5" font-family="Times,serif" font-size="10.00" fill="#767676">&gt;=7.2</text>
</g>
<!-- ext&#45;json -->
<g id="node3" class="node">
<title>ext&#45;json</title>
<path fill="#eeeeee" stroke="#000000" d="M62.0802,-227C62.0802,-227 26.0802,-227 26.0802,-227 20.0802,-227 14.0802,-221 14.0802,-215 14.0802,-215 14.0802,-203 14.0802,-203 14.0802,-197 20.0802,-191 26.0802,-191 26.0802,-191 62.0802,-191 62.0802,-191 68.0802,-191 74.0802,-197 74.0802,-203 74.0802,-203 74.0802,-215 74.0802,-215 74.0802,-221 68.0802,-227 62.0802,-227"/>
<text text-anchor="middle" x="44.0802" y="-205.3" font-family="Times,serif" font-size="14.00" fill="#314b5f">ext&#45;json</text>
</g>
<!-- apparat/artefakt&#45;core&#45;&gt;ext&#45;json -->
<g id="edge2" class="edge">
<title>apparat/artefakt&#45;core&#45;&gt;ext&#45;json</title>
<path fill="none" stroke="#1a2833" d="M180.3248,-273.9902C151.6444,-260.3094 112.3178,-241.5501 83.2865,-227.7018"/>
<polygon fill="#1a2833" stroke="#1a2833" points="84.7816,-224.5373 74.249,-223.3908 81.7678,-230.8553 84.7816,-224.5373"/>
<text text-anchor="middle" x="145.0802" y="-248" font-family="Times,serif" font-size="10.00" fill="#767676">*</text>
</g>
<!-- cocur/slugify -->
<g id="node4" class="node">
<title>cocur/slugify</title>
<path fill="#eeeeee" stroke="#000000" d="M199.5802,-227C199.5802,-227 104.5802,-227 104.5802,-227 98.5802,-227 92.5802,-221 92.5802,-215 92.5802,-215 92.5802,-203 92.5802,-203 92.5802,-197 98.5802,-191 104.5802,-191 104.5802,-191 199.5802,-191 199.5802,-191 205.5802,-191 211.5802,-197 211.5802,-203 211.5802,-203 211.5802,-215 211.5802,-215 211.5802,-221 205.5802,-227 199.5802,-227"/>
<text text-anchor="middle" x="152.0802" y="-205.3" font-family="Times,serif" font-size="14.00" fill="#314b5f">cocur/slugify: v3.1</text>
</g>
<!-- apparat/artefakt&#45;core&#45;&gt;cocur/slugify -->
<g id="edge3" class="edge">
<title>apparat/artefakt&#45;core&#45;&gt;cocur/slugify</title>
<path fill="none" stroke="#1a2833" d="M203.7592,-273.9902C194.7402,-262.6482 182.9457,-247.8157 172.9019,-235.1848"/>
<polygon fill="#1a2833" stroke="#1a2833" points="175.5646,-232.9099 166.6012,-227.2612 170.0857,-237.2667 175.5646,-232.9099"/>
<text text-anchor="middle" x="198.0802" y="-248" font-family="Times,serif" font-size="10.00" fill="#767676">^3.1</text>
</g>
<!-- justinrainbow/json&#45;schema -->
<g id="node5" class="node">
<title>justinrainbow/json&#45;schema</title>
<path fill="#eeeeee" stroke="#000000" d="M322.0802,-173C322.0802,-173 148.0802,-173 148.0802,-173 142.0802,-173 136.0802,-167 136.0802,-161 136.0802,-161 136.0802,-149 136.0802,-149 136.0802,-143 142.0802,-137 148.0802,-137 148.0802,-137 322.0802,-137 322.0802,-137 328.0802,-137 334.0802,-143 334.0802,-149 334.0802,-149 334.0802,-161 334.0802,-161 334.0802,-167 328.0802,-173 322.0802,-173"/>
<text text-anchor="middle" x="235.0802" y="-151.3" font-family="Times,serif" font-size="14.00" fill="#314b5f">justinrainbow/json&#45;schema: 5.2.7</text>
</g>
<!-- apparat/artefakt&#45;core&#45;&gt;justinrainbow/json&#45;schema -->
<g id="edge4" class="edge">
<title>apparat/artefakt&#45;core&#45;&gt;justinrainbow/json&#45;schema</title>
<path fill="none" stroke="#1a2833" d="M220.3377,-273.8075C223.2081,-250.675 228.1954,-210.4836 231.5655,-183.3242"/>
<polygon fill="#1a2833" stroke="#1a2833" points="235.0553,-183.6227 232.8134,-173.2678 228.1085,-182.7606 235.0553,-183.6227"/>
<text text-anchor="middle" x="232.0802" y="-248" font-family="Times,serif" font-size="10.00" fill="#767676">^5.2</text>
</g>
<!-- symfony/console -->
<g id="node6" class="node">
<title>symfony/console</title>
<path fill="#eeeeee" stroke="#000000" d="M413.0802,-227C413.0802,-227 285.0802,-227 285.0802,-227 279.0802,-227 273.0802,-221 273.0802,-215 273.0802,-215 273.0802,-203 273.0802,-203 273.0802,-197 279.0802,-191 285.0802,-191 285.0802,-191 413.0802,-191 413.0802,-191 419.0802,-191 425.0802,-197 425.0802,-203 425.0802,-203 425.0802,-215 425.0802,-215 425.0802,-221 419.0802,-227 413.0802,-227"/>
<text text-anchor="middle" x="349.0802" y="-205.3" font-family="Times,serif" font-size="14.00" fill="#314b5f">symfony/console: v4.1.0</text>
</g>
<!-- apparat/artefakt&#45;core&#45;&gt;symfony/console -->
<g id="edge5" class="edge">
<title>apparat/artefakt&#45;core&#45;&gt;symfony/console</title>
<path fill="none" stroke="#1a2833" d="M246.5053,-273.9902C265.6,-261.892 290.9628,-245.8225 311.6905,-232.6897"/>
<polygon fill="#1a2833" stroke="#1a2833" points="313.6843,-235.5699 320.2583,-227.2612 309.9378,-229.6568 313.6843,-235.5699"/>
<text text-anchor="middle" x="300.0802" y="-248" font-family="Times,serif" font-size="10.00" fill="#767676">^4.1</text>
</g>
<!-- vlucas/phpdotenv -->
<g id="node7" class="node">
<title>vlucas/phpdotenv</title>
<path fill="#eeeeee" stroke="#000000" d="M616.0802,-173C616.0802,-173 486.0802,-173 486.0802,-173 480.0802,-173 474.0802,-167 474.0802,-161 474.0802,-161 474.0802,-149 474.0802,-149 474.0802,-143 480.0802,-137 486.0802,-137 486.0802,-137 616.0802,-137 616.0802,-137 622.0802,-137 628.0802,-143 628.0802,-149 628.0802,-149 628.0802,-161 628.0802,-161 628.0802,-167 622.0802,-173 616.0802,-173"/>
<text text-anchor="middle" x="551.0802" y="-151.3" font-family="Times,serif" font-size="14.00" fill="#314b5f">vlucas/phpdotenv: v2.4.0</text>
</g>
<!-- apparat/artefakt&#45;core&#45;&gt;vlucas/phpdotenv -->
<g id="edge6" class="edge">
<title>apparat/artefakt&#45;core&#45;&gt;vlucas/phpdotenv</title>
<path fill="none" stroke="#1a2833" d="M282.9806,-277.1663C326.7164,-266.0441 385.1357,-248.9736 434.0802,-227 463.7923,-213.6608 495.0969,-194.0659 517.8411,-178.6845"/>
<polygon fill="#1a2833" stroke="#1a2833" points="519.8438,-181.5551 526.1177,-173.0176 515.8891,-175.7793 519.8438,-181.5551"/>
<text text-anchor="middle" x="398.0802" y="-248" font-family="Times,serif" font-size="10.00" fill="#767676">^2.4</text>
</g>
<!-- cocur/slugify&#45;&gt;php -->
<g id="edge8" class="edge">
<title>cocur/slugify&#45;&gt;php</title>
<path fill="none" stroke="#1a2833" d="M121.0534,-190.9653C83.1365,-166.6119 27.3617,-121.7898 56.0802,-83 77.0985,-54.6109 176.6274,-33.6332 231.8828,-23.95"/>
<polygon fill="#1a2833" stroke="#1a2833" points="232.7166,-27.3582 241.9818,-22.2195 231.5343,-20.4588 232.7166,-27.3582"/>
<text text-anchor="middle" x="72.5802" y="-98.5" font-family="Times,serif" font-size="10.00" fill="#767676">&gt;=5.5.9</text>
</g>
<!-- ext&#45;mbstring -->
<g id="node8" class="node">
<title>ext&#45;mbstring</title>
<path fill="#eeeeee" stroke="#000000" d="M172.0802,-119C172.0802,-119 110.0802,-119 110.0802,-119 104.0802,-119 98.0802,-113 98.0802,-107 98.0802,-107 98.0802,-95 98.0802,-95 98.0802,-89 104.0802,-83 110.0802,-83 110.0802,-83 172.0802,-83 172.0802,-83 178.0802,-83 184.0802,-89 184.0802,-95 184.0802,-95 184.0802,-107 184.0802,-107 184.0802,-113 178.0802,-119 172.0802,-119"/>
<text text-anchor="middle" x="141.0802" y="-97.3" font-family="Times,serif" font-size="14.00" fill="#314b5f">ext&#45;mbstring</text>
</g>
<!-- cocur/slugify&#45;&gt;ext&#45;mbstring -->
<g id="edge7" class="edge">
<title>cocur/slugify&#45;&gt;ext&#45;mbstring</title>
<path fill="none" stroke="#1a2833" d="M137.7299,-190.9312C134.2004,-185.4764 130.9106,-179.2647 129.0802,-173 124.8888,-158.6542 127.1061,-142.2453 130.7169,-128.7189"/>
<polygon fill="#1a2833" stroke="#1a2833" points="134.1057,-129.6047 133.6666,-119.019 127.4085,-127.5681 134.1057,-129.6047"/>
<text text-anchor="middle" x="132.0802" y="-152.5" font-family="Times,serif" font-size="10.00" fill="#767676">*</text>
</g>
<!-- justinrainbow/json&#45;schema&#45;&gt;php -->
<g id="edge9" class="edge">
<title>justinrainbow/json&#45;schema&#45;&gt;php</title>
<path fill="none" stroke="#1a2833" d="M238.061,-136.8328C240.5933,-122.2038 244.5348,-101.1589 249.0802,-83 252.1532,-70.7233 256.1591,-57.332 259.7779,-45.9116"/>
<polygon fill="#1a2833" stroke="#1a2833" points="263.2148,-46.6578 262.9547,-36.0661 256.553,-44.5082 263.2148,-46.6578"/>
<text text-anchor="middle" x="265.5802" y="-98.5" font-family="Times,serif" font-size="10.00" fill="#767676">&gt;=5.3.3</text>
</g>
<!-- symfony/console&#45;&gt;php -->
<g id="edge10" class="edge">
<title>symfony/console&#45;&gt;php</title>
<path fill="none" stroke="#1a2833" d="M348.8283,-190.9858C347.8856,-175.6823 344.7529,-153.6185 335.0802,-137 328.8965,-126.3758 321.4278,-128.8551 314.0802,-119 297.4159,-96.6487 285.1762,-67.1509 277.7042,-45.8092"/>
<polygon fill="#1a2833" stroke="#1a2833" points="280.9281,-44.4154 274.4207,-36.0546 274.2939,-46.6487 280.9281,-44.4154"/>
<text text-anchor="middle" x="326.5802" y="-98.5" font-family="Times,serif" font-size="10.00" fill="#767676">^7.1.3</text>
</g>
<!-- symfony/polyfill&#45;mbstring -->
<g id="node9" class="node">
<title>symfony/polyfill&#45;mbstring</title>
<path fill="#eeeeee" stroke="#000000" d="M538.5802,-119C538.5802,-119 359.5802,-119 359.5802,-119 353.5802,-119 347.5802,-113 347.5802,-107 347.5802,-107 347.5802,-95 347.5802,-95 347.5802,-89 353.5802,-83 359.5802,-83 359.5802,-83 538.5802,-83 538.5802,-83 544.5802,-83 550.5802,-89 550.5802,-95 550.5802,-95 550.5802,-107 550.5802,-107 550.5802,-113 544.5802,-119 538.5802,-119"/>
<text text-anchor="middle" x="449.0802" y="-97.3" font-family="Times,serif" font-size="14.00" fill="#314b5f">symfony/polyfill&#45;mbstring: v1.8.0</text>
</g>
<!-- symfony/console&#45;&gt;symfony/polyfill&#45;mbstring -->
<g id="edge11" class="edge">
<title>symfony/console&#45;&gt;symfony/polyfill&#45;mbstring</title>
<path fill="none" stroke="#1a2833" d="M366.0439,-190.6793C382.3761,-173.0405 407.2204,-146.2086 425.4793,-126.489"/>
<polygon fill="#1a2833" stroke="#1a2833" points="428.1412,-128.7657 432.3671,-119.0502 423.0048,-124.0099 428.1412,-128.7657"/>
<text text-anchor="middle" x="422.5802" y="-152.5" font-family="Times,serif" font-size="10.00" fill="#767676">~1.0</text>
</g>
<!-- vlucas/phpdotenv&#45;&gt;php -->
<g id="edge13" class="edge">
<title>vlucas/phpdotenv&#45;&gt;php</title>
<path fill="none" stroke="#1a2833" d="M560.1316,-136.7173C566.5635,-120.8212 572.1322,-98.041 560.0802,-83 528.6757,-43.8069 377.6955,-26.6846 306.4503,-20.6921"/>
<polygon fill="#1a2833" stroke="#1a2833" points="306.3857,-17.1755 296.1355,-19.8558 305.8199,-24.1526 306.3857,-17.1755"/>
<text text-anchor="middle" x="583.5802" y="-98.5" font-family="Times,serif" font-size="10.00" fill="#767676">&gt;=5.3.9</text>
</g>
<!-- symfony/polyfill&#45;mbstring&#45;&gt;php -->
<g id="edge12" class="edge">
<title>symfony/polyfill&#45;mbstring&#45;&gt;php</title>
<path fill="none" stroke="#1a2833" d="M410.0229,-82.9902C378.954,-68.664 335.8083,-48.7691 305.4619,-34.776"/>
<polygon fill="#1a2833" stroke="#1a2833" points="306.6371,-31.4638 296.0904,-30.4547 303.7059,-37.8205 306.6371,-31.4638"/>
<text text-anchor="middle" x="385.5802" y="-57" font-family="Times,serif" font-size="10.00" fill="#767676">&gt;=5.3.3</text>
</g>
</g>
</svg>
