<?xml version="1.0" encoding="UTF-8" standalone="no"?>
<!DOCTYPE svg PUBLIC "-//W3C//DTD SVG 1.1//EN"
 "http://www.w3.org/Graphics/SVG/1.1/DTD/svg11.dtd">
<!-- Generated by graphviz version 2.40.1 (20161225.0304)
 -->
<!-- Title: G Pages: 1 -->
<svg width="556pt" height="210pt"
 viewBox="0.00 0.00 555.50 210.00" xmlns="http://www.w3.org/2000/svg" xmlns:xlink="http://www.w3.org/1999/xlink">
<g id="graph0" class="graph" transform="scale(1 1) rotate(0) translate(4 206)">
<title>G</title>
<polygon fill="#ffffff" stroke="transparent" points="-4,4 -4,-206 551.5,-206 551.5,4 -4,4"/>
<!-- apparat/artefakt&#45;core -->
<g id="node1" class="node">
<title>apparat/artefakt&#45;core</title>
<path fill="#eeeeee" stroke="#000000" stroke-width="2" d="M410,-202C410,-202 305,-202 305,-202 299,-202 293,-196 293,-190 293,-190 293,-178 293,-178 293,-172 299,-166 305,-166 305,-166 410,-166 410,-166 416,-166 422,-172 422,-178 422,-178 422,-190 422,-190 422,-196 416,-202 410,-202"/>
<text text-anchor="middle" x="357.5" y="-180.3" font-family="Times,serif" font-size="14.00" fill="#314b5f">apparat/artefakt&#45;core</text>
</g>
<!-- php -->
<g id="node2" class="node">
<title>php</title>
<path fill="#eeeeee" stroke="#000000" d="M372.5,-36C372.5,-36 342.5,-36 342.5,-36 336.5,-36 330.5,-30 330.5,-24 330.5,-24 330.5,-12 330.5,-12 330.5,-6 336.5,0 342.5,0 342.5,0 372.5,0 372.5,0 378.5,0 384.5,-6 384.5,-12 384.5,-12 384.5,-24 384.5,-24 384.5,-30 378.5,-36 372.5,-36"/>
<text text-anchor="middle" x="357.5" y="-14.3" font-family="Times,serif" font-size="14.00" fill="#314b5f">php</text>
</g>
<!-- apparat/artefakt&#45;core&#45;&gt;php -->
<g id="edge1" class="edge">
<title>apparat/artefakt&#45;core&#45;&gt;php</title>
<path fill="none" stroke="#1a2833" d="M422.2265,-169.7873C477.9879,-154.3149 545.3056,-125.8956 516.5,-83 489.45,-42.7188 432.558,-27.384 394.6832,-21.5567"/>
<polygon fill="#1a2833" stroke="#1a2833" points="394.9312,-18.0577 384.5455,-20.1524 393.9706,-24.9915 394.9312,-18.0577"/>
<text text-anchor="middle" x="535" y="-98.5" font-family="Times,serif" font-size="10.00" fill="#767676">&gt;=7.2</text>
</g>
<!-- cocur/slugify -->
<g id="node3" class="node">
<title>cocur/slugify</title>
<path fill="#eeeeee" stroke="#000000" d="M107,-119C107,-119 12,-119 12,-119 6,-119 0,-113 0,-107 0,-107 0,-95 0,-95 0,-89 6,-83 12,-83 12,-83 107,-83 107,-83 113,-83 119,-89 119,-95 119,-95 119,-107 119,-107 119,-113 113,-119 107,-119"/>
<text text-anchor="middle" x="59.5" y="-97.3" font-family="Times,serif" font-size="14.00" fill="#314b5f">cocur/slugify: v3.1</text>
</g>
<!-- apparat/artefakt&#45;core&#45;&gt;cocur/slugify -->
<g id="edge2" class="edge">
<title>apparat/artefakt&#45;core&#45;&gt;cocur/slugify</title>
<path fill="none" stroke="#1a2833" d="M292.8384,-165.9902C244.4533,-152.5138 178.3761,-134.1098 128.8876,-120.3261"/>
<polygon fill="#1a2833" stroke="#1a2833" points="129.7936,-116.9453 119.2212,-117.6338 127.9154,-123.6886 129.7936,-116.9453"/>
<text text-anchor="middle" x="235.5" y="-140" font-family="Times,serif" font-size="10.00" fill="#767676">^3.1</text>
</g>
<!-- justinrainbow/json&#45;schema -->
<g id="node4" class="node">
<title>justinrainbow/json&#45;schema</title>
<path fill="#eeeeee" stroke="#000000" d="M323.5,-119C323.5,-119 149.5,-119 149.5,-119 143.5,-119 137.5,-113 137.5,-107 137.5,-107 137.5,-95 137.5,-95 137.5,-89 143.5,-83 149.5,-83 149.5,-83 323.5,-83 323.5,-83 329.5,-83 335.5,-89 335.5,-95 335.5,-95 335.5,-107 335.5,-107 335.5,-113 329.5,-119 323.5,-119"/>
<text text-anchor="middle" x="236.5" y="-97.3" font-family="Times,serif" font-size="14.00" fill="#314b5f">justinrainbow/json&#45;schema: 5.2.7</text>
</g>
<!-- apparat/artefakt&#45;core&#45;&gt;justinrainbow/json&#45;schema -->
<g id="edge3" class="edge">
<title>apparat/artefakt&#45;core&#45;&gt;justinrainbow/json&#45;schema</title>
<path fill="none" stroke="#1a2833" d="M331.2448,-165.9902C313.7651,-154 290.5988,-138.1091 271.5494,-125.0421"/>
<polygon fill="#1a2833" stroke="#1a2833" points="273.348,-122.0316 263.1218,-119.2612 269.3884,-127.8041 273.348,-122.0316"/>
<text text-anchor="middle" x="313.5" y="-140" font-family="Times,serif" font-size="10.00" fill="#767676">^5.2</text>
</g>
<!-- vlucas/phpdotenv -->
<g id="node5" class="node">
<title>vlucas/phpdotenv</title>
<path fill="#eeeeee" stroke="#000000" d="M495.5,-119C495.5,-119 365.5,-119 365.5,-119 359.5,-119 353.5,-113 353.5,-107 353.5,-107 353.5,-95 353.5,-95 353.5,-89 359.5,-83 365.5,-83 365.5,-83 495.5,-83 495.5,-83 501.5,-83 507.5,-89 507.5,-95 507.5,-95 507.5,-107 507.5,-107 507.5,-113 501.5,-119 495.5,-119"/>
<text text-anchor="middle" x="430.5" y="-97.3" font-family="Times,serif" font-size="14.00" fill="#314b5f">vlucas/phpdotenv: v2.4.0</text>
</g>
<!-- apparat/artefakt&#45;core&#45;&gt;vlucas/phpdotenv -->
<g id="edge4" class="edge">
<title>apparat/artefakt&#45;core&#45;&gt;vlucas/phpdotenv</title>
<path fill="none" stroke="#1a2833" d="M373.3399,-165.9902C383.4105,-154.5401 396.6097,-139.5328 407.7869,-126.8245"/>
<polygon fill="#1a2833" stroke="#1a2833" points="410.4628,-129.0817 414.4389,-119.2612 405.2065,-124.4587 410.4628,-129.0817"/>
<text text-anchor="middle" x="407.5" y="-140" font-family="Times,serif" font-size="10.00" fill="#767676">^2.4</text>
</g>
<!-- cocur/slugify&#45;&gt;php -->
<g id="edge6" class="edge">
<title>cocur/slugify&#45;&gt;php</title>
<path fill="none" stroke="#1a2833" d="M119.0885,-84.4032C179.1543,-67.6735 269.9826,-42.3756 320.4233,-28.3267"/>
<polygon fill="#1a2833" stroke="#1a2833" points="321.5558,-31.6446 330.25,-25.5898 319.6776,-24.9013 321.5558,-31.6446"/>
<text text-anchor="middle" x="243" y="-57" font-family="Times,serif" font-size="10.00" fill="#767676">&gt;=5.5.9</text>
</g>
<!-- ext&#45;mbstring -->
<g id="node6" class="node">
<title>ext&#45;mbstring</title>
<path fill="#eeeeee" stroke="#000000" d="M90.5,-36C90.5,-36 28.5,-36 28.5,-36 22.5,-36 16.5,-30 16.5,-24 16.5,-24 16.5,-12 16.5,-12 16.5,-6 22.5,0 28.5,0 28.5,0 90.5,0 90.5,0 96.5,0 102.5,-6 102.5,-12 102.5,-12 102.5,-24 102.5,-24 102.5,-30 96.5,-36 90.5,-36"/>
<text text-anchor="middle" x="59.5" y="-14.3" font-family="Times,serif" font-size="14.00" fill="#314b5f">ext&#45;mbstring</text>
</g>
<!-- cocur/slugify&#45;&gt;ext&#45;mbstring -->
<g id="edge5" class="edge">
<title>cocur/slugify&#45;&gt;ext&#45;mbstring</title>
<path fill="none" stroke="#1a2833" d="M59.5,-82.9902C59.5,-72.2963 59.5,-58.4994 59.5,-46.3706"/>
<polygon fill="#1a2833" stroke="#1a2833" points="63.0001,-46.2612 59.5,-36.2612 56.0001,-46.2613 63.0001,-46.2612"/>
<text text-anchor="middle" x="62.5" y="-57" font-family="Times,serif" font-size="10.00" fill="#767676">*</text>
</g>
<!-- justinrainbow/json&#45;schema&#45;&gt;php -->
<g id="edge7" class="edge">
<title>justinrainbow/json&#45;schema&#45;&gt;php</title>
<path fill="none" stroke="#1a2833" d="M262.7552,-82.9902C280.2349,-71 303.4012,-55.1091 322.4506,-42.0421"/>
<polygon fill="#1a2833" stroke="#1a2833" points="324.6116,-44.8041 330.8782,-36.2612 320.652,-39.0316 324.6116,-44.8041"/>
<text text-anchor="middle" x="321" y="-57" font-family="Times,serif" font-size="10.00" fill="#767676">&gt;=5.3.3</text>
</g>
<!-- vlucas/phpdotenv&#45;&gt;php -->
<g id="edge8" class="edge">
<title>vlucas/phpdotenv&#45;&gt;php</title>
<path fill="none" stroke="#1a2833" d="M414.6601,-82.9902C404.5895,-71.5401 391.3903,-56.5328 380.2131,-43.8245"/>
<polygon fill="#1a2833" stroke="#1a2833" points="382.7935,-41.4587 373.5611,-36.2612 377.5372,-46.0817 382.7935,-41.4587"/>
<text text-anchor="middle" x="415" y="-57" font-family="Times,serif" font-size="10.00" fill="#767676">&gt;=5.3.9</text>
</g>
</g>
</svg>
